<svg xmlns="http://www.w3.org/2000/svg" version="1.1" xmlns:xlink="http://www.w3.org/1999/xlink" width="512" height="512" x="0" y="0" viewBox="0 0 88 88" style="enable-background:new 0 0 512 512" xml:space="preserve" class=""><g><g data-name="Online Shopping"><rect width="76" height="72" x="6" y="8" fill="#e6ecff" rx="5" opacity="1" data-original="#e6ecff" class=""></rect><path fill="#4294ff" d="M82 13v9H6v-9a5.002 5.002 0 0 1 5-5h66a5.002 5.002 0 0 1 5 5z" opacity="1" data-original="#4294ff"></path><g fill="#376cfb"><circle cx="15" cy="15" r="3" fill="#376cfb" opacity="1" data-original="#376cfb" class=""></circle><circle cx="23" cy="15" r="3" fill="#376cfb" opacity="1" data-original="#376cfb" class=""></circle><circle cx="31" cy="15" r="3" fill="#376cfb" opacity="1" data-original="#376cfb" class=""></circle><path d="M75 16H55a1 1 0 0 1 0-2h20a1 1 0 0 1 0 2z" fill="#376cfb" opacity="1" data-original="#376cfb" class=""></path><circle cx="41" cy="63" r="4" fill="#376cfb" opacity="1" data-original="#376cfb" class=""></circle><circle cx="55" cy="63" r="4" fill="#376cfb" opacity="1" data-original="#376cfb" class=""></circle><path d="M28 41H18a1 1 0 0 1 0-2h10a1 1 0 0 1 0 2zM31 46h-9a1 1 0 0 1 0-2h9a1 1 0 0 1 0 2zM34 51h-8a1 1 0 0 1 0-2h8a1 1 0 0 1 0 2z" fill="#376cfb" opacity="1" data-original="#376cfb" class=""></path></g><path fill="#4294ff" d="M33 57h26a1 1 0 0 0 .959-.718l5-17A1 1 0 0 0 64 38H36.128l-1.163-4.263A1 1 0 0 0 34 33h-8a1 1 0 0 0 0 2h7.236l5.455 20H33a3 3 0 0 0 0 6h30a1 1 0 0 0 0-2H33a1 1 0 0 1 0-2z" opacity="1" data-original="#4294ff"></path></g></g></svg>