<svg xmlns="http://www.w3.org/2000/svg" xmlns:xlink="http://www.w3.org/1999/xlink" width="512" zoomAndPan="magnify" viewBox="0 0 384 383.999986" height="512" preserveAspectRatio="xMidYMid meet" version="1.0"><defs><clipPath id="969b9afa0d"><path d="M 99 136 L 132 136 L 132 298.839844 L 99 298.839844 Z M 99 136 " clip-rule="nonzero"/></clipPath><clipPath id="7a77ac0fb1"><path d="M 147 158 L 179 158 L 179 298.839844 L 147 298.839844 Z M 147 158 " clip-rule="nonzero"/></clipPath><clipPath id="d9d46c87e0"><path d="M 194 158 L 227 158 L 227 298.839844 L 194 298.839844 Z M 194 158 " clip-rule="nonzero"/></clipPath><clipPath id="3311a9a8f9"><path d="M 52 160 L 85 160 L 85 298.839844 L 52 298.839844 Z M 52 160 " clip-rule="nonzero"/></clipPath><clipPath id="412dc11092"><path d="M 241 233 L 274 233 L 274 298.839844 L 241 298.839844 Z M 241 233 " clip-rule="nonzero"/></clipPath></defs><g clip-path="url(#969b9afa0d)"><path fill="#f68321" d="M 131.550781 136.320312 L 99.761719 152.660156 L 99.785156 298.820312 L 131.570312 298.820312 Z M 131.550781 136.320312 " fill-opacity="1" fill-rule="evenodd"/></g><g clip-path="url(#7a77ac0fb1)"><path fill="#f68321" d="M 147.082031 158.136719 L 147.101562 298.820312 L 178.886719 298.820312 L 178.863281 174.457031 Z M 147.082031 158.136719 " fill-opacity="1" fill-rule="evenodd"/></g><g clip-path="url(#d9d46c87e0)"><path fill="#f68321" d="M 226.175781 158.246094 L 194.371094 174.457031 L 194.417969 298.847656 L 226.199219 298.820312 Z M 226.175781 158.246094 " fill-opacity="1" fill-rule="evenodd"/></g><g clip-path="url(#3311a9a8f9)"><path fill="#f68321" d="M 84.230469 160.652344 L 52.476562 176.992188 L 52.496094 298.820312 L 84.300781 298.820312 Z M 84.230469 160.652344 " fill-opacity="1" fill-rule="evenodd"/></g><g clip-path="url(#412dc11092)"><path fill="#f68321" d="M 241.714844 233.351562 L 241.714844 298.820312 L 273.519531 298.820312 L 273.496094 250.765625 C 272.441406 250.589844 271.390625 250.367188 270.328125 250.074219 L 270.308594 250.074219 C 259.488281 247.175781 249.59375 241.277344 241.714844 233.351562 Z M 241.714844 233.351562 " fill-opacity="1" fill-rule="evenodd"/></g><path fill="#f68321" d="M 286.574219 155.894531 C 289.628906 155.84375 292.683594 156.253906 295.644531 157.035156 C 313.644531 161.863281 324.332031 180.378906 319.503906 198.40625 C 314.679688 216.402344 296.160156 227.113281 278.132812 222.285156 C 260.136719 217.4375 249.429688 198.914062 254.253906 180.917969 C 256.613281 172.097656 262.445312 164.597656 270.417969 160.152344 C 275.355469 157.398438 280.921875 155.9375 286.574219 155.894531 Z M 288.777344 138.296875 C 287.5 138.25 286.222656 138.25 284.917969 138.320312 C 276.835938 138.609375 268.9375 140.804688 261.867188 144.761719 C 249.726562 151.515625 240.855469 162.917969 237.246094 176.339844 C 229.90625 203.765625 246.179688 231.957031 273.605469 239.300781 C 282.964844 241.769531 292.84375 241.539062 302.085938 238.664062 L 303.121094 240.710938 C 305.839844 246.660156 312.949219 248.210938 318.71875 244.867188 C 324.492188 241.539062 326.714844 234.589844 322.941406 229.265625 L 321.722656 227.421875 C 328.863281 220.824219 334.003906 212.339844 336.542969 202.960938 C 343.882812 175.554688 327.609375 147.363281 300.203125 140.019531 C 296.453125 139.015625 292.640625 138.429688 288.777344 138.296875 Z M 288.777344 138.296875 " fill-opacity="1" fill-rule="nonzero"/><path fill="#f68321" d="M 327.023438 244.484375 C 325.410156 246.191406 323.433594 247.757812 321.148438 249.085938 C 318.855469 250.410156 316.523438 251.332031 314.210938 251.867188 L 326.105469 277.996094 C 329.34375 284.574219 335.671875 284.457031 340.140625 281.878906 C 344.605469 279.296875 347.878906 273.863281 343.816406 267.804688 Z M 327.023438 244.484375 " fill-opacity="1" fill-rule="nonzero"/><path fill="#f68321" d="M 186.609375 129.585938 C 192.085938 129.585938 196.417969 133.898438 196.417969 139.375 C 196.417969 144.851562 192.085938 149.160156 186.609375 149.160156 C 181.132812 149.160156 176.800781 144.851562 176.800781 139.375 C 176.800781 133.898438 181.132812 129.585938 186.609375 129.585938 Z M 60.101562 129.585938 C 65.582031 129.585938 69.910156 133.898438 69.910156 139.375 C 69.910156 144.851562 65.582031 149.160156 60.101562 149.160156 C 54.625 149.160156 50.292969 144.851562 50.292969 139.375 C 50.292969 133.898438 54.628906 129.585938 60.101562 129.585938 Z M 265.863281 93.742188 C 271.34375 93.742188 275.652344 98.074219 275.652344 103.550781 C 275.652344 109 271.34375 113.335938 265.863281 113.335938 C 260.386719 113.335938 256.054688 109.003906 256.054688 103.550781 C 256.054688 98.078125 260.386719 93.742188 265.863281 93.742188 Z M 128.703125 93.742188 C 134.179688 93.742188 138.488281 98.074219 138.488281 103.550781 C 138.488281 109 134.179688 113.335938 128.703125 113.335938 C 123.222656 113.335938 118.894531 109.003906 118.894531 103.550781 C 118.894531 98.078125 123.222656 93.742188 128.703125 93.742188 Z M 128.703125 83.035156 C 117.433594 83.035156 108.140625 92.257812 108.140625 103.550781 C 108.140625 104.222656 108.273438 104.894531 108.34375 105.566406 L 73.125 123.707031 C 69.578125 120.742188 65.0625 118.855469 60.105469 118.855469 C 48.835938 118.855469 39.574219 128.101562 39.574219 139.371094 C 39.574219 150.640625 48.84375 159.90625 60.105469 159.90625 C 71.371094 159.90625 80.601562 150.636719 80.601562 139.371094 C 80.601562 136.96875 80.109375 134.703125 79.34375 132.546875 L 112.222656 115.640625 C 115.996094 120.714844 121.964844 124.085938 128.703125 124.085938 C 135.453125 124.085938 141.445312 120.691406 145.199219 115.582031 L 168.65625 129.722656 C 167.082031 132.613281 166.089844 135.871094 166.089844 139.371094 C 166.089844 150.640625 175.34375 159.90625 186.609375 159.90625 C 197.875 159.90625 207.144531 150.636719 207.144531 139.371094 C 207.144531 139.011719 207.050781 138.675781 207.050781 138.320312 L 249.902344 116.253906 C 253.675781 120.964844 259.398438 124.085938 265.863281 124.085938 C 277.132812 124.085938 286.398438 114.816406 286.398438 103.550781 C 286.398438 92.257812 277.128906 83.035156 265.863281 83.035156 C 254.59375 83.035156 245.347656 92.257812 245.347656 103.550781 C 245.347656 104.515625 245.53125 105.457031 245.660156 106.398438 L 203.667969 128.015625 C 199.964844 122.515625 193.675781 118.855469 186.609375 118.855469 C 182.816406 118.855469 179.285156 119.976562 176.234375 121.800781 L 149.011719 105.34375 C 149.058594 104.738281 149.1875 104.152344 149.1875 103.550781 C 149.1875 92.257812 139.964844 83.035156 128.703125 83.035156 Z M 128.703125 83.035156 " fill-opacity="1" fill-rule="evenodd"/></svg>