<svg xmlns="http://www.w3.org/2000/svg" xmlns:xlink="http://www.w3.org/1999/xlink" width="512" zoomAndPan="magnify" viewBox="0 0 384 383.999986" height="512" preserveAspectRatio="xMidYMid meet" version="1.0"><defs><clipPath id="54330572c5"><path d="M 30.410156 33.113281 L 345.410156 33.113281 L 345.410156 348 L 30.410156 348 Z M 30.410156 33.113281 " clip-rule="nonzero"/></clipPath></defs><path fill="#f68321" d="M 238.703125 171.695312 L 238.703125 191.597656 L 239.320312 191.597656 C 252.542969 191.085938 252.46875 172.15625 239.320312 171.695312 L 238.703125 171.695312 " fill-opacity="1" fill-rule="nonzero"/><path fill="#f68321" d="M 222.433594 85.082031 L 230.074219 66.640625 C 203.910156 57.476562 172.097656 57.476562 145.933594 66.640625 L 153.566406 85.082031 C 175.058594 77.855469 200.945312 77.855469 222.433594 85.082031 " fill-opacity="1" fill-rule="nonzero"/><path fill="#f68321" d="M 266.695312 181.652344 C 266.695312 188.859375 263.769531 195.914062 258.667969 201.003906 C 253.507812 206.171875 246.628906 209.019531 239.320312 209.019531 L 238.703125 209.019531 L 238.703125 218.972656 C 238.28125 230.507812 221.710938 230.519531 221.277344 218.972656 L 221.277344 162.984375 C 221.277344 158.175781 225.183594 154.273438 229.992188 154.273438 L 239.320312 154.273438 C 246.636719 154.273438 253.507812 157.117188 258.675781 162.285156 C 263.84375 167.449219 266.695312 174.328125 266.695312 181.652344 Z M 208.160156 212.808594 C 211.558594 216.210938 211.558594 221.730469 208.160156 225.128906 C 204.757812 228.53125 199.242188 228.53125 195.835938 225.128906 L 182.71875 212.007812 L 182.71875 218.972656 C 182.289062 230.507812 165.71875 230.519531 165.292969 218.972656 L 165.292969 162.984375 C 165.292969 158.175781 169.195312 154.273438 174.007812 154.273438 L 183.339844 154.273438 C 198.484375 154.273438 210.710938 166.527344 210.710938 181.652344 C 210.710938 181.976562 211.261719 195.285156 199.257812 203.910156 Z M 141.347656 182.265625 C 152.882812 182.691406 152.890625 199.261719 141.347656 199.6875 L 136.0625 199.6875 L 136.0625 210.257812 L 146.011719 210.257812 C 157.550781 210.683594 157.558594 227.253906 146.011719 227.683594 L 127.351562 227.683594 C 122.535156 227.683594 118.640625 223.78125 118.640625 218.972656 L 118.640625 162.984375 C 118.640625 158.167969 122.535156 154.273438 127.351562 154.273438 L 146.011719 154.273438 C 157.550781 154.695312 157.558594 171.265625 146.011719 171.695312 L 136.0625 171.695312 L 136.0625 182.265625 Z M 94.070312 190.980469 C 94.070312 242.769531 136.210938 284.90625 188.003906 284.90625 C 239.792969 284.90625 281.929688 242.769531 281.929688 190.980469 C 277.230469 66.578125 98.792969 66.535156 94.070312 190.980469 " fill-opacity="1" fill-rule="nonzero"/><path fill="#f68321" d="M 183.335938 171.695312 L 182.71875 171.695312 L 182.71875 191.597656 L 183.339844 191.597656 C 196.554688 191.085938 196.476562 172.15625 183.335938 171.695312 " fill-opacity="1" fill-rule="nonzero"/><path fill="#f68321" d="M 287.214844 140.449219 L 305.640625 132.820312 C 292.867188 107.085938 271.894531 86.113281 246.160156 73.335938 L 238.523438 91.765625 C 259.425781 102.449219 276.527344 119.550781 287.214844 140.449219 " fill-opacity="1" fill-rule="nonzero"/><path fill="#f68321" d="M 238.527344 290.1875 L 246.160156 308.617188 C 271.898438 295.84375 292.871094 274.871094 305.640625 249.136719 L 287.214844 241.503906 C 276.527344 262.40625 259.429688 279.503906 238.527344 290.1875 " fill-opacity="1" fill-rule="nonzero"/><path fill="#f68321" d="M 153.566406 296.875 L 145.925781 315.3125 C 172.09375 324.480469 203.910156 324.480469 230.078125 315.3125 L 222.433594 296.875 C 200.945312 304.101562 175.058594 304.101562 153.566406 296.875 " fill-opacity="1" fill-rule="nonzero"/><path fill="#f68321" d="M 312.339844 148.902344 L 293.898438 156.542969 C 301.128906 178.035156 301.128906 203.921875 293.898438 225.414062 L 312.339844 233.050781 C 321.5 206.878906 321.5 175.070312 312.339844 148.902344 " fill-opacity="1" fill-rule="nonzero"/><g clip-path="url(#54330572c5)"><path fill="#f68321" d="M 39.324219 190.980469 C 39.324219 108.996094 106.019531 42.300781 188.003906 42.300781 C 269.984375 42.300781 336.675781 108.996094 336.675781 190.976562 C 329.234375 387.890625 46.800781 387.945312 39.324219 190.980469 Z M 188.003906 33.386719 C 101.101562 33.386719 30.40625 104.078125 30.410156 191.3125 C 34.484375 298.691406 114.953125 347.597656 187.996094 347.605469 C 188.003906 347.605469 188.003906 347.605469 188.007812 347.605469 C 261.0625 347.605469 341.53125 298.699219 345.597656 190.976562 C 345.597656 104.078125 274.902344 33.386719 188.003906 33.386719 " fill-opacity="1" fill-rule="nonzero"/></g><path fill="#f68321" d="M 82.105469 156.542969 L 63.664062 148.902344 C 59.183594 162.117188 56.75 176.273438 56.75 190.980469 C 56.75 205.683594 59.183594 219.835938 63.664062 233.046875 L 82.105469 225.410156 C 74.878906 203.921875 74.878906 178.039062 82.105469 156.542969 " fill-opacity="1" fill-rule="nonzero"/><path fill="#f68321" d="M 137.480469 91.765625 L 129.84375 73.335938 C 104.109375 86.113281 83.136719 107.085938 70.359375 132.820312 L 88.789062 140.449219 C 99.476562 119.550781 116.574219 102.449219 137.480469 91.765625 " fill-opacity="1" fill-rule="nonzero"/><path fill="#f68321" d="M 88.789062 241.503906 L 70.359375 249.136719 C 83.132812 274.871094 104.101562 295.84375 129.84375 308.617188 L 137.476562 290.1875 C 116.574219 279.503906 99.476562 262.40625 88.789062 241.503906 " fill-opacity="1" fill-rule="nonzero"/></svg>