<svg xmlns="http://www.w3.org/2000/svg" xmlns:xlink="http://www.w3.org/1999/xlink" width="512" zoomAndPan="magnify" viewBox="0 0 384 383.999986" height="512" preserveAspectRatio="xMidYMid meet" version="1.0"><defs><clipPath id="7cecfa661d"><path d="M 37 38.398438 L 347 38.398438 L 347 345.898438 L 37 345.898438 Z M 37 38.398438 " clip-rule="nonzero"/></clipPath></defs><g clip-path="url(#7cecfa661d)"><path fill="#f68321" d="M 166.902344 258.875 L 156.117188 281.8125 L 147.050781 266.214844 L 129.277344 269.328125 L 141.617188 242.738281 C 142.933594 243.90625 143.667969 245.769531 146.195312 249.636719 L 146.199219 249.640625 C 150.808594 256.679688 158.789062 260.175781 166.902344 258.875 Z M 191.96875 259.140625 C 198.925781 259.1875 205.484375 255.75 209.484375 249.640625 L 209.492188 249.625 C 212.074219 245.667969 212.777344 243.8125 214.160156 242.652344 C 214.769531 242.140625 215.488281 241.78125 216.476562 241.382812 L 226.40625 264.558594 L 208.726562 260.941406 L 199.207031 276.269531 Z M 184.351562 149.378906 C 194.570312 157.019531 192.25 156.175781 204.980469 156.886719 C 209.878906 157.164062 213.851562 160.488281 214.957031 165.257812 C 217.875 177.679688 216.640625 175.539062 225.933594 184.28125 C 229.503906 187.621094 230.410156 192.730469 228.207031 197.109375 C 222.449219 208.492188 222.871094 206.0625 224.394531 218.726562 C 224.960938 223.589844 222.382812 228.085938 217.875 229.996094 C 206.148438 235.023438 208.03125 233.4375 201.058594 244.125 C 198.378906 248.210938 193.5 249.992188 188.8125 248.566406 C 176.601562 244.886719 179.066406 244.886719 166.871094 248.566406 C 162.167969 249.992188 157.300781 248.210938 154.625 244.125 C 147.636719 233.4375 149.535156 235.023438 137.808594 229.996094 C 133.300781 228.085938 130.703125 223.589844 131.289062 218.726562 C 132.796875 206.0625 133.234375 208.492188 127.476562 197.109375 C 125.269531 192.730469 126.164062 187.621094 129.746094 184.28125 C 139.039062 175.539062 137.808594 177.679688 140.710938 165.257812 C 141.828125 160.488281 145.804688 157.164062 150.699219 156.886719 C 163.429688 156.175781 161.113281 157.019531 171.328125 149.378906 C 175.253906 146.445312 180.429688 146.445312 184.351562 149.378906 Z M 177.832031 228.539062 C 194.601562 228.539062 208.257812 214.867188 208.257812 198.113281 C 208.257812 181.359375 194.601562 167.691406 177.832031 167.691406 C 161.082031 167.691406 147.410156 181.359375 147.410156 198.113281 C 147.410156 214.867188 161.082031 228.539062 177.832031 228.539062 Z M 89.769531 191.285156 L 109.90625 191.285156 C 109.519531 194.285156 106.933594 196.640625 103.832031 196.640625 L 95.855469 196.640625 C 92.757812 196.640625 90.160156 194.285156 89.769531 191.285156 Z M 83.476562 175.859375 L 116.210938 175.859375 C 115.820312 178.871094 113.226562 181.214844 110.121094 181.214844 L 89.566406 181.214844 C 86.453125 181.214844 83.867188 178.871094 83.476562 175.859375 Z M 77.339844 160.433594 L 122.339844 160.433594 C 121.949219 163.445312 119.363281 165.789062 116.261719 165.789062 L 83.425781 165.789062 C 80.3125 165.789062 77.726562 163.445312 77.339844 160.433594 Z M 88.289062 150.363281 L 77.289062 150.363281 C 75.476562 119.449219 62.074219 123.851562 62.074219 102.878906 C 62.074219 82.015625 78.984375 65.105469 99.84375 65.105469 C 120.703125 65.105469 137.617188 82.015625 137.617188 102.878906 C 137.617188 123.851562 124.210938 119.449219 122.402344 150.363281 L 111.398438 150.363281 L 111.398438 116.964844 L 115.148438 116.964844 C 122.738281 116.964844 128.957031 110.746094 128.957031 103.15625 C 128.957031 95.546875 122.738281 89.335938 115.148438 89.335938 C 107.539062 89.335938 101.328125 95.550781 101.328125 103.15625 L 101.328125 106.890625 L 98.363281 106.890625 L 98.363281 103.15625 C 98.363281 95.550781 92.148438 89.335938 84.539062 89.335938 C 76.953125 89.335938 70.734375 95.546875 70.734375 103.15625 C 70.734375 110.746094 76.949219 116.964844 84.539062 116.964844 L 88.289062 116.964844 Z M 101.328125 150.363281 L 98.363281 150.363281 L 98.363281 116.964844 L 101.328125 116.964844 Z M 88.289062 106.890625 L 84.539062 106.890625 C 82.488281 106.890625 80.804688 105.210938 80.804688 103.15625 C 80.804688 101.09375 82.484375 99.40625 84.539062 99.40625 C 86.605469 99.40625 88.289062 101.09375 88.289062 103.15625 Z M 111.398438 106.890625 L 111.398438 103.15625 C 111.398438 101.09375 113.085938 99.40625 115.148438 99.40625 C 117.203125 99.40625 118.882812 101.09375 118.882812 103.15625 C 118.882812 105.210938 117.203125 106.890625 115.148438 106.890625 Z M 104.878906 52.335938 C 104.878906 55.113281 102.625 57.371094 99.84375 57.371094 C 97.066406 57.371094 94.808594 55.113281 94.808594 52.335938 L 94.808594 43.4375 C 94.808594 40.65625 97.066406 38.398438 99.84375 38.398438 C 102.625 38.398438 104.878906 40.65625 104.878906 43.4375 Z M 75.714844 57.453125 C 77.101562 59.859375 76.273438 62.941406 73.867188 64.332031 C 71.457031 65.71875 68.375 64.890625 66.988281 62.480469 L 62.546875 54.773438 C 61.15625 52.367188 61.984375 49.285156 64.394531 47.894531 C 66.800781 46.507812 69.882812 47.335938 71.273438 49.742188 Z M 53.023438 76.46875 C 55.429688 77.859375 56.253906 80.941406 54.863281 83.347656 C 53.472656 85.753906 50.390625 86.578125 47.984375 85.1875 L 40.273438 80.730469 C 37.867188 79.339844 37.042969 76.257812 38.433594 73.851562 C 39.824219 71.445312 42.910156 70.621094 45.316406 72.011719 Z M 132.683594 62.488281 C 131.292969 64.894531 128.210938 65.71875 125.804688 64.328125 C 123.398438 62.9375 122.574219 59.851562 123.964844 57.449219 L 128.421875 49.738281 C 129.8125 47.332031 132.894531 46.507812 135.300781 47.898438 C 137.707031 49.289062 138.53125 52.371094 137.140625 54.777344 Z M 151.707031 85.183594 C 149.300781 86.578125 146.21875 85.753906 144.828125 83.351562 C 143.433594 80.945312 144.257812 77.863281 146.660156 76.46875 L 154.359375 72.011719 C 156.761719 70.621094 159.847656 71.441406 161.238281 73.847656 C 162.632812 76.253906 161.808594 79.335938 159.402344 80.730469 Z M 240.78125 176.144531 L 247.207031 152.195312 L 264.734375 169.722656 Z M 312.882812 86.515625 L 321.421875 77.976562 C 325.433594 73.941406 332.003906 73.941406 336.011719 77.976562 L 338.953125 80.890625 C 342.960938 84.921875 342.960938 91.496094 338.953125 95.503906 L 330.410156 104.042969 Z M 323.289062 111.164062 L 271.855469 162.601562 L 254.328125 145.074219 L 305.761719 93.636719 Z M 101.679688 257.277344 L 111.15625 282.203125 C 111.441406 282.960938 112.097656 283.429688 112.894531 283.46875 L 139.539062 284.78125 C 141.359375 284.863281 142.097656 287.15625 140.683594 288.28125 L 119.894531 305 C 119.257812 305.492188 119.011719 306.269531 119.21875 307.046875 L 126.21875 332.789062 C 126.707031 334.53125 124.765625 335.941406 123.25 334.960938 L 100.921875 320.347656 C 100.246094 319.898438 99.429688 319.898438 98.753906 320.347656 L 76.445312 334.960938 C 74.933594 335.941406 72.988281 334.53125 73.460938 332.789062 L 80.457031 307.046875 C 80.664062 306.269531 80.417969 305.492188 79.78125 305 L 58.992188 288.28125 C 57.578125 287.15625 58.316406 284.863281 60.136719 284.78125 L 86.78125 283.46875 C 87.578125 283.429688 88.234375 282.960938 88.519531 282.203125 L 97.996094 257.277344 C 98.628906 255.578125 101.046875 255.578125 101.679688 257.277344 Z M 328.570312 326.160156 C 328.570312 328.394531 327.4375 330.300781 325.480469 331.371094 C 323.527344 332.441406 321.324219 332.378906 319.433594 331.183594 C 317.167969 329.757812 314.886719 328.316406 312.574219 326.902344 L 312.574219 252.496094 C 315.011719 251.082031 317.402344 249.71875 319.695312 248.414062 C 321.605469 247.34375 323.746094 247.359375 325.621094 248.460938 C 327.5 249.5625 328.570312 251.421875 328.570312 253.59375 Z M 338.640625 300.996094 L 338.640625 278.757812 C 343.464844 280.152344 346.992188 284.601562 346.992188 289.878906 C 346.992188 295.152344 343.464844 299.601562 338.640625 300.996094 Z M 302.503906 324.65625 C 292.183594 318.601562 281.210938 313.242188 269.046875 310.585938 L 269.046875 269.785156 C 280.835938 266.671875 292.160156 260.585938 302.503906 254.667969 Z M 258.972656 309.855469 L 238.390625 309.855469 C 227.609375 309.855469 218.796875 301.03125 218.796875 290.265625 C 218.796875 279.5 227.609375 270.671875 238.390625 270.671875 L 258.972656 270.671875 Z M 250.734375 319.929688 L 265.269531 319.929688 L 265.269531 345.59375 L 261.5 345.59375 C 255.574219 345.59375 250.734375 340.753906 250.734375 334.832031 Z M 75.96875 257.4375 C 77.09375 259.980469 75.941406 262.957031 73.398438 264.078125 C 70.859375 265.203125 67.882812 264.050781 66.757812 261.507812 C 60.136719 246.523438 56.457031 229.953125 56.457031 212.53125 C 56.457031 202.515625 57.671875 192.777344 59.964844 183.464844 C 60.628906 180.765625 63.359375 179.113281 66.058594 179.777344 C 68.757812 180.441406 70.410156 183.171875 69.746094 185.871094 C 67.640625 194.414062 66.527344 203.34375 66.527344 212.53125 C 66.527344 228.507812 69.898438 243.699219 75.96875 257.4375 Z M 215.425781 317.320312 C 218.042969 316.378906 220.929688 317.742188 221.867188 320.355469 C 222.808594 322.972656 221.445312 325.859375 218.832031 326.800781 C 206.023438 331.402344 192.21875 333.910156 177.832031 333.910156 C 166.851562 333.910156 156.210938 332.449219 146.09375 329.710938 C 143.410156 328.984375 141.820312 326.214844 142.546875 323.53125 C 143.273438 320.851562 146.042969 319.261719 148.722656 319.988281 C 158.003906 322.5 167.761719 323.835938 177.832031 323.835938 C 191.023438 323.835938 203.679688 321.539062 215.425781 317.320312 Z M 283.578125 177.722656 C 282.710938 175.082031 284.148438 172.234375 286.785156 171.363281 C 289.425781 170.492188 292.277344 171.929688 293.144531 174.570312 C 297.082031 186.515625 299.210938 199.277344 299.210938 212.53125 C 299.210938 218.195312 298.820312 223.769531 298.070312 229.226562 C 297.691406 231.980469 295.148438 233.90625 292.394531 233.527344 C 289.640625 233.148438 287.710938 230.601562 288.09375 227.851562 C 288.78125 222.84375 289.140625 217.726562 289.140625 212.53125 C 289.140625 200.375 287.1875 188.675781 283.578125 177.722656 Z M 166.484375 101.796875 C 163.71875 102.078125 161.246094 100.0625 160.964844 97.296875 C 160.683594 94.53125 162.703125 92.058594 165.464844 91.777344 C 169.535156 91.367188 173.660156 91.152344 177.832031 91.152344 C 205.222656 91.152344 230.507812 100.246094 250.828125 115.574219 C 253.046875 117.246094 253.488281 120.40625 251.816406 122.625 C 250.140625 124.847656 246.980469 125.289062 244.761719 123.613281 C 226.128906 109.5625 202.945312 101.226562 177.832031 101.226562 C 174 101.226562 170.214844 101.417969 166.484375 101.796875 Z M 166.484375 101.796875 " fill-opacity="1" fill-rule="evenodd"/></g></svg>