<svg xmlns="http://www.w3.org/2000/svg" xmlns:xlink="http://www.w3.org/1999/xlink" width="512" zoomAndPan="magnify" viewBox="0 0 384 383.999986" height="512" preserveAspectRatio="xMidYMid meet" version="1.0"><defs><clipPath id="b98e49cdae"><path d="M 42.144531 59.039062 L 342 59.039062 L 342 332 L 42.144531 332 Z M 42.144531 59.039062 " clip-rule="nonzero"/></clipPath></defs><g clip-path="url(#b98e49cdae)"><path fill="#f68321" d="M 90.183594 331.699219 L 293.8125 331.699219 L 293.8125 316 C 293.8125 307.367188 284.972656 300.304688 274.164062 300.304688 L 239.09375 300.304688 L 239.09375 263.699219 L 318.8125 263.699219 C 331.484375 263.699219 341.851562 253.328125 341.851562 240.65625 L 341.851562 82.152344 C 341.851562 69.480469 331.484375 59.109375 318.8125 59.109375 L 65.183594 59.109375 C 52.511719 59.109375 42.144531 69.476562 42.144531 82.152344 L 42.144531 240.65625 C 42.144531 253.328125 52.511719 263.699219 65.183594 263.699219 L 144.902344 263.699219 L 144.902344 300.304688 L 109.832031 300.304688 C 99.023438 300.304688 90.183594 307.367188 90.183594 316 Z M 148.332031 111.421875 C 154.308594 112.597656 159.859375 114.949219 164.738281 118.226562 L 173.492188 114.335938 L 181.023438 121.871094 L 177.136719 130.621094 C 180.417969 135.5 182.769531 141.054688 183.941406 147.03125 L 192.867188 150.46875 L 192.867188 161.121094 L 183.9375 164.558594 C 182.765625 170.535156 180.414062 176.089844 177.136719 180.96875 L 181.023438 189.71875 L 173.492188 197.253906 L 164.742188 193.367188 C 159.863281 196.644531 154.304688 198.996094 148.328125 200.171875 L 144.890625 209.097656 L 134.238281 209.097656 L 130.800781 200.167969 C 124.824219 198.996094 119.273438 196.644531 114.390625 193.367188 L 105.640625 197.253906 L 98.105469 189.722656 L 101.992188 180.972656 C 98.714844 176.09375 96.363281 170.535156 95.191406 164.558594 L 86.261719 161.125 L 86.261719 150.46875 L 95.191406 147.03125 C 96.363281 141.054688 98.714844 135.5 101.992188 130.621094 L 98.105469 121.871094 L 105.640625 114.335938 L 114.390625 118.226562 C 119.273438 114.949219 124.824219 112.597656 130.800781 111.421875 L 134.238281 102.492188 L 144.890625 102.492188 Z M 139.566406 132.261719 C 152.5625 132.261719 163.097656 142.800781 163.097656 155.796875 C 163.097656 168.792969 152.5625 179.328125 139.566406 179.328125 C 126.570312 179.328125 116.035156 168.792969 116.035156 155.796875 C 116.035156 142.800781 126.570312 132.261719 139.566406 132.261719 Z M 255.429688 102.683594 C 259.984375 94.792969 268.035156 90.945312 276.28125 91.394531 L 264.898438 111.105469 L 270.804688 121.332031 L 282.609375 121.332031 L 293.992188 101.617188 C 298.503906 108.535156 299.195312 117.433594 294.640625 125.324219 C 290.085938 133.214844 280.957031 137.578125 272.183594 136.46875 L 244.804688 183.886719 C 250.152344 190.929688 250.9375 201.019531 246.382812 208.910156 C 241.828125 216.800781 233.773438 220.648438 225.527344 220.199219 L 236.910156 200.484375 L 231.007812 190.261719 L 219.199219 190.261719 L 207.820312 209.972656 C 203.308594 203.058594 202.613281 194.160156 207.167969 186.269531 C 211.722656 178.378906 220.855469 174.015625 229.628906 175.125 L 257.003906 127.707031 C 251.65625 120.664062 250.871094 110.574219 255.429688 102.683594 Z M 64.609375 78.375 L 319.390625 78.375 C 321.148438 78.375 322.585938 79.816406 322.585938 81.574219 L 322.585938 233.214844 L 61.410156 233.214844 L 61.410156 81.574219 C 61.410156 79.816406 62.851562 78.375 64.609375 78.375 Z M 64.609375 78.375 " fill-opacity="1" fill-rule="evenodd"/></g></svg>