<svg xmlns="http://www.w3.org/2000/svg" xmlns:xlink="http://www.w3.org/1999/xlink" width="512" zoomAndPan="magnify" viewBox="0 0 384 383.999986" height="512" preserveAspectRatio="xMidYMid meet" version="1.0"><defs><clipPath id="61271a4ed6"><path d="M 38.398438 78.527344 L 345.898438 78.527344 L 345.898438 305.777344 L 38.398438 305.777344 Z M 38.398438 78.527344 " clip-rule="nonzero"/></clipPath></defs><g clip-path="url(#61271a4ed6)"><path fill="#f68321" d="M 295.015625 266.839844 L 317.058594 288.878906 C 303.152344 299.421875 285.882812 305.148438 267.886719 305.148438 C 254.164062 305.148438 238.984375 298.96875 222.71875 286.835938 L 233.394531 276.15625 L 244.710938 264.792969 C 253.800781 271.15625 261.570312 274.382812 267.886719 274.382812 C 277.613281 274.382812 287.109375 271.746094 295.015625 266.839844 Z M 236.53125 258.476562 C 230.667969 253.617188 224.535156 247.707031 218.628906 241.347656 C 217.398438 242.890625 215.808594 244.890625 214.039062 247.117188 C 213.492188 247.84375 212.902344 248.570312 212.265625 249.296875 C 212.175781 249.390625 212.082031 249.527344 211.992188 249.617188 C 207.722656 254.933594 202.859375 260.886719 198.90625 265.429688 C 204.085938 270.882812 209.355469 275.882812 214.628906 280.335938 Z M 69.027344 233.394531 C 69.027344 223.394531 73.253906 213.761719 80.84375 206.308594 L 59.167969 184.632812 C 45.671875 197.949219 38.308594 215.078125 38.308594 233.347656 C 38.308594 251.617188 45.671875 268.75 59.167969 282.0625 L 80.84375 260.386719 C 73.253906 253.023438 69.027344 243.4375 69.027344 233.394531 Z M 169.367188 186.449219 L 147.507812 208.308594 C 153.371094 213.214844 159.503906 219.078125 165.414062 225.441406 C 166.640625 223.894531 168.183594 221.988281 169.867188 219.851562 C 174.546875 213.988281 180.5 206.671875 185.089844 201.355469 C 179.910156 195.949219 174.636719 190.949219 169.367188 186.449219 Z M 204.539062 242.527344 C 204.902344 242.074219 205.265625 241.574219 205.675781 241.117188 C 205.949219 240.800781 206.175781 240.484375 206.449219 240.164062 C 206.585938 240.027344 206.675781 239.847656 206.8125 239.710938 C 208.675781 237.347656 210.3125 235.300781 211.539062 233.757812 C 213.675781 231.03125 215.445312 228.941406 217.171875 227.03125 C 217.355469 226.804688 217.582031 226.578125 217.765625 226.394531 C 217.992188 226.167969 218.21875 225.941406 218.398438 225.714844 C 224.398438 219.214844 230.578125 213.308594 236.578125 208.355469 L 214.671875 186.449219 C 208.3125 191.859375 201.996094 197.992188 195.816406 204.71875 C 195.769531 204.765625 195.769531 204.765625 195.722656 204.808594 C 190.589844 210.398438 181.5 221.667969 175.730469 228.941406 C 174.503906 230.484375 173.410156 231.894531 172.503906 232.984375 C 170.367188 235.710938 168.59375 237.800781 166.867188 239.710938 C 166.6875 239.9375 166.457031 240.164062 166.277344 240.390625 C 166.050781 240.617188 165.824219 240.847656 165.640625 241.074219 C 159.640625 247.570312 153.460938 253.480469 147.464844 258.433594 L 169.367188 280.335938 C 175.683594 274.972656 182.046875 268.792969 188.226562 262.023438 C 188.269531 261.976562 188.363281 261.886719 188.40625 261.839844 C 192.542969 257.34375 199.132812 249.296875 204.539062 242.527344 Z M 324.828125 184.679688 L 303.152344 206.355469 C 310.695312 213.808594 314.964844 223.394531 314.964844 233.4375 C 314.964844 243.4375 310.742188 253.070312 303.152344 260.523438 L 324.828125 282.199219 C 338.324219 268.882812 345.6875 251.707031 345.6875 233.484375 C 345.6875 215.171875 338.324219 197.992188 324.828125 184.679688 Z M 116.109375 161.683594 C 98.113281 161.683594 80.84375 167.410156 66.9375 177.953125 L 88.976562 199.992188 C 96.929688 195.085938 106.382812 192.449219 116.152344 192.449219 C 122.46875 192.449219 130.242188 195.675781 139.328125 202.039062 L 150.007812 191.359375 L 161.324219 179.996094 C 145.007812 167.863281 129.832031 161.683594 116.109375 161.683594 Z M 116.109375 274.382812 C 106.382812 274.382812 96.886719 271.703125 88.933594 266.839844 L 66.894531 288.878906 C 80.796875 299.421875 98.066406 305.148438 116.0625 305.148438 C 129.785156 305.148438 144.964844 298.96875 161.234375 286.835938 L 139.191406 264.792969 C 130.105469 271.15625 122.332031 274.382812 116.109375 274.382812 Z M 222.71875 179.996094 L 244.757812 202.039062 C 253.890625 195.628906 261.660156 192.402344 267.886719 192.402344 C 277.613281 192.402344 287.109375 195.085938 295.0625 199.949219 L 317.101562 177.90625 C 303.195312 167.363281 285.929688 161.640625 267.933594 161.640625 C 254.164062 161.683594 238.984375 167.863281 222.71875 179.996094 Z M 225.308594 130.917969 C 235.214844 130.917969 243.257812 122.875 243.257812 112.96875 L 243.257812 97.609375 C 243.257812 87.703125 235.214844 79.660156 225.308594 79.660156 C 215.402344 79.660156 207.355469 87.703125 207.355469 97.609375 L 207.355469 112.96875 C 207.355469 122.875 215.402344 130.917969 225.308594 130.917969 Z M 263.753906 110.425781 L 273.976562 110.425781 C 282.429688 110.425781 289.335938 103.515625 289.335938 95.066406 C 289.335938 86.613281 282.429688 79.703125 273.976562 79.703125 L 253.480469 79.703125 L 253.480469 130.964844 L 263.753906 130.964844 Z M 330.328125 115.558594 C 330.328125 107.105469 323.417969 100.199219 314.964844 100.199219 C 312.148438 100.199219 309.832031 97.882812 309.832031 95.066406 C 309.832031 92.246094 312.148438 89.929688 314.964844 89.929688 L 330.328125 89.929688 L 330.328125 79.703125 L 314.964844 79.703125 C 306.46875 79.703125 299.605469 86.613281 299.605469 95.066406 C 299.605469 103.5625 306.515625 110.425781 314.964844 110.425781 C 317.785156 110.425781 320.101562 112.695312 320.101562 115.558594 C 320.101562 118.378906 317.785156 120.695312 314.964844 120.695312 L 299.605469 120.695312 L 299.605469 130.964844 L 314.964844 130.964844 C 323.464844 130.917969 330.328125 124.058594 330.328125 115.558594 Z M 153.460938 126.148438 C 154.417969 130.328125 157.1875 130.917969 158.6875 130.917969 C 160.234375 130.917969 162.960938 130.28125 163.960938 126.148438 C 164.09375 125.558594 164.324219 124.648438 164.6875 123.421875 L 177.957031 81.476562 L 168.183594 78.386719 L 158.734375 108.335938 L 149.28125 78.386719 L 139.511719 81.476562 L 152.78125 123.375 C 153.097656 124.648438 153.324219 125.558594 153.460938 126.148438 Z M 130.511719 120.695312 L 110.019531 120.695312 L 110.019531 110.425781 L 130.511719 110.425781 L 130.511719 100.15625 L 110.019531 100.15625 L 110.019531 89.882812 L 130.511719 89.882812 L 130.511719 79.660156 L 99.75 79.660156 L 99.75 130.917969 L 130.511719 130.917969 Z M 89.523438 110.425781 L 89.523438 100.15625 C 89.523438 88.839844 80.34375 79.660156 69.027344 79.660156 L 53.667969 79.660156 L 53.667969 130.875 L 69.027344 130.875 C 80.34375 130.917969 89.523438 121.738281 89.523438 110.425781 Z M 89.523438 110.425781 " fill-opacity="1" fill-rule="nonzero"/></g></svg>