<svg xmlns="http://www.w3.org/2000/svg" xmlns:xlink="http://www.w3.org/1999/xlink" width="512" zoomAndPan="magnify" viewBox="0 0 384 383.999986" height="512" preserveAspectRatio="xMidYMid meet" version="1.0"><defs><clipPath id="efd0bd9471"><path d="M 92.425781 253.367188 L 152.371094 253.367188 L 152.371094 329.425781 L 92.425781 329.425781 Z M 92.425781 253.367188 " clip-rule="nonzero"/></clipPath><clipPath id="f67a2f3bc3"><path d="M 38.398438 232 L 84 232 L 84 283 L 38.398438 283 Z M 38.398438 232 " clip-rule="nonzero"/></clipPath><clipPath id="5be9f601de"><path d="M 98 41.054688 L 204 41.054688 L 204 139 L 98 139 Z M 98 41.054688 " clip-rule="nonzero"/></clipPath><clipPath id="c0424b434e"><path d="M 315 255 L 345.898438 255 L 345.898438 278 L 315 278 Z M 315 255 " clip-rule="nonzero"/></clipPath></defs><g clip-path="url(#efd0bd9471)"><path fill="#f68321" d="M 131.636719 329.425781 C 130.015625 329.425781 128.386719 329.171875 126.800781 328.65625 C 122.839844 327.367188 119.617188 324.617188 117.722656 320.902344 L 93.050781 272.476562 C 91.996094 270.40625 92.820312 267.871094 94.890625 266.816406 C 96.960938 265.761719 99.5 266.582031 100.554688 268.65625 L 125.226562 317.078125 C 126.097656 318.789062 127.582031 320.054688 129.40625 320.648438 C 131.226562 321.238281 133.171875 321.085938 134.878906 320.21875 L 139.875 317.671875 C 141.585938 316.800781 142.851562 315.316406 143.445312 313.492188 C 144.035156 311.671875 143.882812 309.726562 143.011719 308.019531 L 118.339844 259.59375 C 117.285156 257.523438 118.109375 254.984375 120.179688 253.929688 C 122.25 252.875 124.785156 253.699219 125.84375 255.773438 L 150.515625 304.195312 C 152.40625 307.90625 152.738281 312.132812 151.453125 316.09375 C 150.164062 320.058594 147.410156 323.28125 143.699219 325.171875 L 138.703125 327.71875 C 136.476562 328.855469 134.066406 329.425781 131.636719 329.425781 " fill-opacity="1" fill-rule="nonzero"/></g><path fill="#f68321" d="M 64.320312 229.40625 L 85.753906 271.472656 L 129.316406 249.277344 L 107.882812 207.210938 Z M 83.917969 281.34375 C 82.386719 281.34375 80.910156 280.503906 80.164062 279.046875 L 54.90625 229.476562 C 54.402344 228.480469 54.308594 227.324219 54.65625 226.261719 C 55 225.203125 55.753906 224.320312 56.746094 223.8125 L 107.808594 197.796875 C 109.882812 196.738281 112.417969 197.5625 113.472656 199.636719 L 138.730469 249.203125 C 139.238281 250.199219 139.328125 251.355469 138.980469 252.417969 C 138.636719 253.476562 137.882812 254.359375 136.890625 254.867188 L 85.828125 280.882812 C 85.214844 281.195312 84.5625 281.34375 83.917969 281.34375 " fill-opacity="1" fill-rule="nonzero"/><g clip-path="url(#f67a2f3bc3)"><path fill="#f68321" d="M 58.621094 282.433594 C 57.085938 282.433594 55.609375 281.59375 54.867188 280.132812 L 39.15625 249.300781 C 38.652344 248.308594 38.558594 247.152344 38.902344 246.089844 C 39.25 245.027344 40.003906 244.144531 40.996094 243.640625 L 61.519531 233.183594 C 63.59375 232.125 66.128906 232.949219 67.183594 235.023438 C 68.238281 237.09375 67.414062 239.628906 65.34375 240.683594 L 48.570312 249.230469 L 60.457031 272.558594 L 77.230469 264.011719 C 79.300781 262.957031 81.835938 263.78125 82.894531 265.851562 C 83.949219 267.925781 83.125 270.460938 81.054688 271.515625 L 60.527344 281.972656 C 59.917969 282.285156 59.265625 282.433594 58.621094 282.433594 " fill-opacity="1" fill-rule="nonzero"/></g><path fill="#f68321" d="M 134.972656 255.324219 C 132.949219 255.324219 131.167969 253.863281 130.824219 251.804688 C 130.441406 249.511719 131.992188 247.339844 134.285156 246.960938 L 198.519531 236.265625 L 159.085938 158.871094 L 112.675781 204.550781 C 111.019531 206.179688 108.351562 206.160156 106.722656 204.503906 C 105.089844 202.847656 105.113281 200.179688 106.769531 198.546875 L 157.273438 148.835938 C 158.230469 147.894531 159.578125 147.46875 160.902344 147.683594 C 162.226562 147.898438 163.367188 148.730469 163.976562 149.925781 L 208.632812 237.5625 C 209.242188 238.757812 209.242188 240.171875 208.640625 241.371094 C 208.035156 242.570312 206.894531 243.40625 205.570312 243.628906 L 135.667969 255.265625 C 135.433594 255.304688 135.199219 255.324219 134.972656 255.324219 " fill-opacity="1" fill-rule="nonzero"/><path fill="#f68321" d="M 190.945312 216.347656 C 188.847656 216.347656 187.035156 214.785156 186.773438 212.648438 C 186.492188 210.339844 188.132812 208.242188 190.441406 207.957031 C 191.917969 207.78125 193.34375 207.34375 194.675781 206.664062 C 197.726562 205.109375 199.976562 202.457031 201.011719 199.195312 C 202.046875 195.933594 201.734375 192.46875 200.140625 189.4375 C 197.039062 183.554688 189.613281 181.046875 183.585938 183.847656 C 182.074219 184.546875 180.742188 185.515625 179.621094 186.71875 C 178.035156 188.421875 175.371094 188.515625 173.667969 186.933594 C 171.96875 185.347656 171.875 182.683594 173.457031 180.980469 C 175.324219 178.976562 177.539062 177.371094 180.039062 176.210938 C 184.945312 173.933594 190.492188 173.636719 195.664062 175.382812 C 200.832031 177.128906 205.066406 180.726562 207.585938 185.511719 C 210.242188 190.550781 210.757812 196.316406 209.035156 201.742188 C 207.316406 207.167969 203.574219 211.582031 198.5 214.164062 C 196.285156 215.292969 193.917969 216.019531 191.460938 216.316406 C 191.289062 216.339844 191.117188 216.347656 190.945312 216.347656 " fill-opacity="1" fill-rule="nonzero"/><path fill="#f68321" d="M 223.339844 182.035156 C 221.804688 182.035156 220.328125 181.195312 219.585938 179.734375 C 218.527344 177.660156 219.351562 175.125 221.421875 174.070312 L 234.578125 167.367188 C 236.652344 166.3125 239.183594 167.136719 240.242188 169.207031 C 241.296875 171.28125 240.472656 173.816406 238.402344 174.871094 L 225.246094 181.574219 C 224.632812 181.886719 223.980469 182.035156 223.339844 182.035156 " fill-opacity="1" fill-rule="nonzero"/><path fill="#f68321" d="M 197.242188 160.222656 C 196.808594 160.222656 196.371094 160.15625 195.9375 160.015625 C 193.726562 159.296875 192.515625 156.921875 193.234375 154.710938 L 197.796875 140.667969 C 198.515625 138.457031 200.890625 137.246094 203.101562 137.96875 C 205.316406 138.683594 206.523438 141.058594 205.804688 143.273438 L 201.246094 157.3125 C 200.664062 159.09375 199.015625 160.222656 197.242188 160.222656 " fill-opacity="1" fill-rule="nonzero"/><path fill="#f68321" d="M 240.410156 220.46875 C 239.976562 220.46875 239.539062 220.402344 239.105469 220.261719 L 225.066406 215.699219 C 222.851562 214.980469 221.644531 212.609375 222.359375 210.394531 C 223.078125 208.183594 225.453125 206.972656 227.667969 207.691406 L 241.707031 212.253906 C 243.917969 212.972656 245.128906 215.347656 244.410156 217.558594 C 243.832031 219.339844 242.183594 220.46875 240.410156 220.46875 " fill-opacity="1" fill-rule="nonzero"/><path fill="#f68321" d="M 244.75 146.246094 L 333.027344 146.246094 L 333.027344 89.816406 L 244.75 89.816406 Z M 337.234375 154.667969 L 240.539062 154.667969 C 238.214844 154.667969 236.332031 152.78125 236.332031 150.457031 L 236.332031 85.609375 C 236.332031 83.28125 238.214844 81.398438 240.539062 81.398438 L 337.234375 81.398438 C 339.5625 81.398438 341.445312 83.28125 341.445312 85.609375 L 341.445312 150.457031 C 341.445312 152.78125 339.5625 154.667969 337.234375 154.667969 " fill-opacity="1" fill-rule="nonzero"/><path fill="#f68321" d="M 288.90625 134.351562 L 288.871094 134.351562 C 287.8125 134.351562 286.796875 133.953125 286.019531 133.238281 L 237.6875 88.703125 C 235.976562 87.128906 235.871094 84.464844 237.445312 82.753906 C 239.019531 81.042969 241.683594 80.933594 243.394531 82.511719 L 288.890625 124.433594 L 334.382812 82.511719 C 336.09375 80.933594 338.753906 81.042969 340.332031 82.753906 C 341.90625 84.464844 341.800781 87.128906 340.089844 88.703125 L 291.757812 133.238281 C 290.980469 133.953125 289.964844 134.351562 288.90625 134.351562 " fill-opacity="1" fill-rule="nonzero"/><path fill="#f68321" d="M 337.230469 154.667969 C 336.367188 154.667969 335.492188 154.402344 334.742188 153.847656 L 295.597656 125.066406 C 293.726562 123.6875 293.324219 121.054688 294.703125 119.179688 C 296.082031 117.304688 298.714844 116.90625 300.589844 118.28125 L 339.730469 147.066406 C 341.601562 148.441406 342.003906 151.078125 340.628906 152.953125 C 339.800781 154.074219 338.523438 154.667969 337.230469 154.667969 " fill-opacity="1" fill-rule="nonzero"/><path fill="#f68321" d="M 240.542969 154.667969 C 239.25 154.667969 237.976562 154.074219 237.148438 152.953125 C 235.773438 151.078125 236.175781 148.441406 238.046875 147.066406 L 277.1875 118.28125 C 279.0625 116.90625 281.695312 117.304688 283.074219 119.179688 C 284.453125 121.054688 284.050781 123.6875 282.175781 125.066406 L 243.035156 153.847656 C 242.285156 154.402344 241.410156 154.667969 240.542969 154.667969 " fill-opacity="1" fill-rule="nonzero"/><g clip-path="url(#5be9f601de)"><path fill="#f68321" d="M 113.253906 49.476562 C 109.84375 49.476562 107.066406 52.25 107.066406 55.660156 L 107.066406 100.382812 C 107.066406 103.792969 109.84375 106.570312 113.253906 106.570312 L 121.964844 106.570312 C 123.46875 106.570312 124.859375 107.371094 125.613281 108.671875 L 135.625 126.015625 L 145.636719 108.671875 C 146.390625 107.371094 147.777344 106.570312 149.285156 106.570312 L 189.152344 106.570312 C 192.566406 106.570312 195.339844 103.792969 195.339844 100.382812 L 195.339844 55.660156 C 195.339844 52.25 192.566406 49.476562 189.152344 49.476562 Z M 135.625 138.644531 C 134.121094 138.644531 132.730469 137.84375 131.976562 136.539062 L 119.535156 114.988281 L 113.253906 114.988281 C 105.199219 114.988281 98.648438 108.433594 98.648438 100.382812 L 98.648438 55.660156 C 98.648438 47.605469 105.199219 41.054688 113.253906 41.054688 L 189.152344 41.054688 C 197.207031 41.054688 203.761719 47.605469 203.761719 55.660156 L 203.761719 100.382812 C 203.761719 108.433594 197.207031 114.988281 189.152344 114.988281 L 151.714844 114.988281 L 139.269531 136.539062 C 138.519531 137.84375 137.128906 138.644531 135.625 138.644531 " fill-opacity="1" fill-rule="nonzero"/></g><path fill="#f68321" d="M 125.925781 75.457031 C 124.511719 75.457031 123.363281 76.609375 123.363281 78.023438 C 123.363281 79.433594 124.511719 80.585938 125.925781 80.585938 C 127.339844 80.585938 128.488281 79.433594 128.488281 78.023438 C 128.488281 76.609375 127.339844 75.457031 125.925781 75.457031 Z M 125.925781 89.007812 C 119.871094 89.007812 114.941406 84.078125 114.941406 78.023438 C 114.941406 71.964844 119.871094 67.039062 125.925781 67.039062 C 131.980469 67.039062 136.910156 71.964844 136.910156 78.023438 C 136.910156 84.078125 131.980469 89.007812 125.925781 89.007812 " fill-opacity="1" fill-rule="nonzero"/><path fill="#f68321" d="M 151.203125 75.457031 C 149.789062 75.457031 148.640625 76.609375 148.640625 78.023438 C 148.640625 79.433594 149.789062 80.585938 151.203125 80.585938 C 152.617188 80.585938 153.769531 79.433594 153.769531 78.023438 C 153.769531 76.609375 152.617188 75.457031 151.203125 75.457031 Z M 151.203125 89.007812 C 145.148438 89.007812 140.21875 84.078125 140.21875 78.023438 C 140.21875 71.964844 145.148438 67.039062 151.203125 67.039062 C 157.261719 67.039062 162.1875 71.964844 162.1875 78.023438 C 162.1875 84.078125 157.261719 89.007812 151.203125 89.007812 " fill-opacity="1" fill-rule="nonzero"/><path fill="#f68321" d="M 176.480469 75.457031 C 175.066406 75.457031 173.917969 76.609375 173.917969 78.023438 C 173.917969 79.433594 175.066406 80.585938 176.480469 80.585938 C 177.894531 80.585938 179.046875 79.433594 179.046875 78.023438 C 179.046875 76.609375 177.894531 75.457031 176.480469 75.457031 Z M 176.480469 89.007812 C 170.425781 89.007812 165.496094 84.078125 165.496094 78.023438 C 165.496094 71.964844 170.425781 67.039062 176.480469 67.039062 C 182.539062 67.039062 187.464844 71.964844 187.464844 78.023438 C 187.464844 84.078125 182.539062 89.007812 176.480469 89.007812 " fill-opacity="1" fill-rule="nonzero"/><g clip-path="url(#c0424b434e)"><path fill="#f68321" d="M 334.511719 277.753906 L 320.019531 277.753906 C 317.695312 277.753906 315.808594 275.867188 315.808594 273.542969 C 315.808594 271.21875 317.695312 269.335938 320.019531 269.335938 L 334.511719 269.335938 C 335.894531 269.335938 337.015625 268.210938 337.015625 266.828125 C 337.015625 265.449219 335.894531 264.324219 334.511719 264.324219 C 332.1875 264.324219 330.304688 262.441406 330.304688 260.113281 C 330.304688 257.789062 332.1875 255.902344 334.511719 255.902344 C 340.535156 255.902344 345.4375 260.804688 345.4375 266.828125 C 345.4375 272.851562 340.535156 277.753906 334.511719 277.753906 " fill-opacity="1" fill-rule="nonzero"/></g><path fill="#f68321" d="M 332.894531 291.183594 L 318.265625 291.183594 C 315.941406 291.183594 314.054688 289.296875 314.054688 286.972656 C 314.054688 284.648438 315.941406 282.761719 318.265625 282.761719 L 332.894531 282.761719 C 334.273438 282.761719 335.398438 281.640625 335.398438 280.257812 C 335.398438 278.878906 334.273438 277.753906 332.894531 277.753906 C 330.566406 277.753906 328.683594 275.867188 328.683594 273.542969 C 328.683594 271.21875 330.566406 269.335938 332.894531 269.335938 C 338.917969 269.335938 343.816406 274.234375 343.816406 280.257812 C 343.816406 286.285156 338.917969 291.183594 332.894531 291.183594 " fill-opacity="1" fill-rule="nonzero"/><path fill="#f68321" d="M 300.488281 304.632812 C 297.46875 304.632812 294.277344 304.421875 290.792969 303.992188 C 287.023438 303.527344 283.34375 303.003906 279.78125 301.671875 C 278.351562 301.136719 276.894531 300.398438 275.328125 299.425781 C 275.140625 299.304688 274.953125 299.1875 274.765625 299.070312 C 273.90625 298.523438 273.160156 298.050781 272.472656 297.832031 C 272.3125 297.804688 271.867188 297.816406 271.539062 297.824219 C 271.335938 297.828125 271.132812 297.832031 270.933594 297.835938 L 267.878906 297.859375 C 267.867188 297.859375 267.855469 297.859375 267.847656 297.859375 C 265.535156 297.859375 263.65625 295.996094 263.636719 293.683594 C 263.617188 291.359375 265.488281 289.460938 267.8125 289.4375 L 270.863281 289.414062 C 271.015625 289.414062 271.167969 289.410156 271.320312 289.40625 C 272.265625 289.382812 273.558594 289.347656 274.96875 289.789062 C 276.71875 290.339844 278.078125 291.199219 279.277344 291.960938 C 279.445312 292.066406 279.613281 292.171875 279.785156 292.28125 C 280.882812 292.964844 281.820312 293.441406 282.730469 293.785156 C 285.4375 294.796875 288.449219 295.222656 291.820312 295.636719 C 295.53125 296.089844 298.835938 296.277344 301.921875 296.195312 C 301.984375 296.191406 302.042969 296.191406 302.105469 296.191406 L 329.644531 296.191406 C 331.023438 296.191406 332.148438 295.070312 332.148438 293.6875 C 332.148438 292.304688 331.023438 291.183594 329.644531 291.183594 C 327.316406 291.183594 325.433594 289.296875 325.433594 286.972656 C 325.433594 284.648438 327.316406 282.761719 329.644531 282.761719 C 335.667969 282.761719 340.566406 287.664062 340.566406 293.6875 C 340.566406 299.710938 335.667969 304.613281 329.644531 304.613281 L 302.066406 304.613281 C 301.542969 304.625 301.019531 304.632812 300.488281 304.632812 " fill-opacity="1" fill-rule="nonzero"/><path fill="#f68321" d="M 331.921875 264.324219 L 320.898438 264.324219 C 318.574219 264.324219 316.6875 262.441406 316.6875 260.113281 C 316.6875 257.789062 318.574219 255.902344 320.898438 255.902344 L 331.921875 255.902344 C 333.300781 255.902344 334.425781 254.78125 334.425781 253.402344 C 334.425781 252.019531 333.300781 250.894531 331.921875 250.894531 L 303.539062 250.894531 C 301.214844 250.894531 299.332031 249.011719 299.332031 246.6875 C 299.332031 243.902344 299.910156 241.242188 301.058594 238.785156 C 301.539062 237.761719 302.039062 236.773438 302.527344 235.816406 C 303.457031 233.980469 304.335938 232.246094 304.957031 230.457031 C 306.417969 226.230469 307.617188 220.210938 305.089844 215.414062 C 305.070312 215.386719 305.046875 215.355469 305.023438 215.320312 C 304.371094 214.449219 303.53125 213.789062 302.773438 213.558594 C 302.039062 213.335938 301.0625 213.460938 300.621094 214.144531 C 300.410156 214.464844 300.449219 215.515625 300.472656 216.082031 C 300.5625 218.300781 300.472656 220.308594 300.191406 222.214844 C 299.613281 226.125 298.425781 229.597656 296.660156 232.558594 C 296.558594 232.886719 296.410156 233.210938 296.222656 233.519531 C 296.109375 233.703125 295.386719 234.867188 294.132812 236.5625 C 294.074219 236.644531 294.019531 236.71875 293.976562 236.777344 C 293.933594 236.832031 293.890625 236.890625 293.847656 236.945312 C 289.671875 242.507812 280.332031 253 268.386719 254.546875 C 266.078125 254.84375 263.972656 253.21875 263.671875 250.914062 C 263.371094 248.609375 265 246.496094 267.304688 246.195312 C 273.449219 245.402344 278.992188 240.871094 282.558594 237.214844 C 284.371094 235.355469 285.855469 233.542969 286.945312 232.105469 C 286.960938 232.082031 286.976562 232.058594 286.992188 232.035156 C 287.074219 231.898438 287.203125 231.691406 287.394531 231.390625 C 287.757812 230.824219 288.335938 229.933594 289.113281 228.746094 C 290.484375 226.648438 291.410156 224.039062 291.859375 220.988281 C 292.0625 219.605469 292.128906 218.113281 292.0625 216.421875 C 291.976562 214.339844 292.015625 211.921875 293.5625 209.546875 C 295.996094 205.8125 300.796875 204.148438 305.238281 205.507812 C 307.722656 206.265625 310.042969 207.96875 311.777344 210.296875 C 311.949219 210.527344 312.097656 210.742188 312.234375 210.949219 C 312.289062 211.035156 312.34375 211.121094 312.390625 211.214844 C 315.652344 217.167969 315.832031 224.777344 312.914062 233.210938 C 312.105469 235.542969 311.050781 237.621094 310.035156 239.628906 C 309.558594 240.5625 309.109375 241.449219 308.6875 242.347656 C 308.667969 242.390625 308.652344 242.433594 308.628906 242.476562 L 331.921875 242.476562 C 337.945312 242.476562 342.84375 247.375 342.84375 253.402344 C 342.84375 259.425781 337.945312 264.324219 331.921875 264.324219 " fill-opacity="1" fill-rule="nonzero"/><path fill="#f68321" d="M 248.746094 295.628906 L 263.636719 295.628906 L 263.636719 248.75 L 248.746094 248.75 Z M 267.847656 304.046875 L 244.535156 304.046875 C 242.207031 304.046875 240.324219 302.164062 240.324219 299.839844 L 240.324219 244.539062 C 240.324219 242.214844 242.207031 240.328125 244.535156 240.328125 L 267.847656 240.328125 C 270.171875 240.328125 272.058594 242.214844 272.058594 244.539062 L 272.058594 299.839844 C 272.058594 302.164062 270.171875 304.046875 267.847656 304.046875 " fill-opacity="1" fill-rule="nonzero"/></svg>