<svg xmlns="http://www.w3.org/2000/svg" xmlns:xlink="http://www.w3.org/1999/xlink" width="512" zoomAndPan="magnify" viewBox="0 0 384 383.999986" height="512" preserveAspectRatio="xMidYMid meet" version="1.0"><defs><clipPath id="9ed8066896"><path d="M 35.015625 32.5625 L 351.515625 32.5625 L 351.515625 349 L 35.015625 349 Z M 35.015625 32.5625 " clip-rule="nonzero"/></clipPath></defs><g clip-path="url(#9ed8066896)"><path fill="#f68321" d="M 340.886719 201.320312 C 346.710938 201.320312 351.433594 196.59375 351.433594 190.773438 C 351.433594 184.949219 346.710938 180.222656 340.886719 180.222656 L 309.246094 180.222656 L 309.246094 159.128906 L 340.886719 159.128906 C 346.710938 159.128906 351.433594 154.40625 351.433594 148.582031 C 351.433594 142.761719 346.710938 138.035156 340.886719 138.035156 L 309.246094 138.035156 L 309.246094 106.394531 C 309.246094 88.949219 295.050781 74.75 277.605469 74.75 L 245.960938 74.75 L 245.960938 43.109375 C 245.960938 37.289062 241.238281 32.5625 235.414062 32.5625 C 229.59375 32.5625 224.867188 37.289062 224.867188 43.109375 L 224.867188 74.75 L 203.773438 74.75 L 203.773438 43.109375 C 203.773438 37.289062 199.046875 32.5625 193.226562 32.5625 C 187.402344 32.5625 182.679688 37.289062 182.679688 43.109375 L 182.679688 74.75 L 161.585938 74.75 L 161.585938 43.109375 C 161.585938 37.289062 156.859375 32.5625 151.039062 32.5625 C 145.214844 32.5625 140.488281 37.289062 140.488281 43.109375 L 140.488281 74.75 L 108.847656 74.75 C 91.402344 74.75 77.207031 88.949219 77.207031 106.394531 L 77.207031 138.035156 L 45.566406 138.035156 C 39.742188 138.035156 35.015625 142.761719 35.015625 148.582031 C 35.015625 154.40625 39.742188 159.128906 45.566406 159.128906 L 77.207031 159.128906 L 77.207031 180.222656 L 45.566406 180.222656 C 39.742188 180.222656 35.015625 184.949219 35.015625 190.773438 C 35.015625 196.59375 39.742188 201.320312 45.566406 201.320312 L 77.207031 201.320312 L 77.207031 222.414062 L 45.566406 222.414062 C 39.742188 222.414062 35.015625 227.140625 35.015625 232.960938 C 35.015625 238.78125 39.742188 243.507812 45.566406 243.507812 L 77.207031 243.507812 L 77.207031 275.148438 C 77.207031 292.59375 91.402344 306.792969 108.847656 306.792969 L 140.488281 306.792969 L 140.488281 338.433594 C 140.488281 344.253906 145.214844 348.980469 151.039062 348.980469 C 156.859375 348.980469 161.585938 344.253906 161.585938 338.433594 L 161.585938 306.792969 L 182.679688 306.792969 L 182.679688 338.433594 C 182.679688 344.253906 187.402344 348.980469 193.226562 348.980469 C 199.046875 348.980469 203.773438 344.253906 203.773438 338.433594 L 203.773438 306.792969 L 224.867188 306.792969 L 224.867188 338.433594 C 224.867188 344.253906 229.59375 348.980469 235.414062 348.980469 C 241.238281 348.980469 245.960938 344.253906 245.960938 338.433594 L 245.960938 306.792969 L 277.605469 306.792969 C 295.050781 306.792969 309.246094 292.59375 309.246094 275.148438 L 309.246094 243.507812 L 340.886719 243.507812 C 346.710938 243.507812 351.433594 238.78125 351.433594 232.960938 C 351.433594 227.140625 346.710938 222.414062 340.886719 222.414062 L 309.246094 222.414062 L 309.246094 201.320312 Z M 288.152344 275.148438 C 288.152344 280.960938 283.417969 285.695312 277.605469 285.695312 L 108.847656 285.695312 C 103.035156 285.695312 98.300781 280.960938 98.300781 275.148438 L 98.300781 106.394531 C 98.300781 100.582031 103.035156 95.847656 108.847656 95.847656 L 277.605469 95.847656 C 283.417969 95.847656 288.152344 100.582031 288.152344 106.394531 Z M 140.488281 159.128906 L 140.488281 232.960938 C 140.488281 238.78125 135.765625 243.507812 129.941406 243.507812 C 124.121094 243.507812 119.394531 238.78125 119.394531 232.960938 L 119.394531 159.128906 C 119.394531 153.308594 124.121094 148.582031 129.941406 148.582031 C 135.765625 148.582031 140.488281 153.308594 140.488281 159.128906 Z M 182.679688 180.222656 C 165.234375 180.222656 151.039062 194.421875 151.039062 211.867188 C 151.039062 229.3125 165.234375 243.507812 182.679688 243.507812 C 200.125 243.507812 214.320312 229.3125 214.320312 211.867188 C 214.320312 194.421875 200.125 180.222656 182.679688 180.222656 Z M 182.679688 222.414062 C 176.867188 222.414062 172.132812 217.679688 172.132812 211.867188 C 172.132812 206.054688 176.867188 201.320312 182.679688 201.320312 C 188.492188 201.320312 193.226562 206.054688 193.226562 211.867188 C 193.226562 217.679688 188.492188 222.414062 182.679688 222.414062 Z M 267.058594 159.128906 C 267.058594 164.953125 262.332031 169.675781 256.511719 169.675781 L 245.960938 169.675781 L 245.960938 232.960938 C 245.960938 238.78125 241.238281 243.507812 235.414062 243.507812 C 229.59375 243.507812 224.867188 238.78125 224.867188 232.960938 L 224.867188 169.675781 L 214.320312 169.675781 C 208.5 169.675781 203.773438 164.953125 203.773438 159.128906 C 203.773438 153.308594 208.5 148.582031 214.320312 148.582031 L 256.511719 148.582031 C 262.332031 148.582031 267.058594 153.308594 267.058594 159.128906 Z M 267.058594 159.128906 " fill-opacity="1" fill-rule="nonzero"/></g></svg>