<svg xmlns="http://www.w3.org/2000/svg" xmlns:xlink="http://www.w3.org/1999/xlink" width="512" zoomAndPan="magnify" viewBox="0 0 384 383.999986" height="512" preserveAspectRatio="xMidYMid meet" version="1.0"><defs><clipPath id="3b86265d58"><path d="M 156 28.710938 L 192 28.710938 L 192 64 L 156 64 Z M 156 28.710938 " clip-rule="nonzero"/></clipPath><clipPath id="26a53786f4"><path d="M 318 140 L 353.171875 140 L 353.171875 176 L 318 176 Z M 318 140 " clip-rule="nonzero"/></clipPath><clipPath id="3caae7be86"><path d="M 318 210 L 353.171875 210 L 353.171875 245 L 318 245 Z M 318 210 " clip-rule="nonzero"/></clipPath><clipPath id="83d1fc88d6"><path d="M 29.171875 140 L 65 140 L 65 176 L 29.171875 176 Z M 29.171875 140 " clip-rule="nonzero"/></clipPath><clipPath id="7962c86f8d"><path d="M 29.171875 210 L 65 210 L 65 245 L 29.171875 245 Z M 29.171875 210 " clip-rule="nonzero"/></clipPath></defs><path fill="#f68321" d="M 244.367188 255.949219 L 137.859375 255.949219 C 126.898438 255.949219 117.863281 246.914062 117.863281 235.957031 L 117.863281 149.636719 C 117.863281 138.484375 126.898438 129.449219 137.859375 129.449219 L 244.367188 129.449219 C 255.515625 129.449219 264.550781 138.484375 264.550781 149.636719 L 264.550781 235.957031 C 264.550781 246.914062 255.515625 255.949219 244.367188 255.949219 Z M 141.511719 215.960938 C 141.125 215.960938 140.742188 215.960938 140.359375 215.769531 C 138.628906 215.191406 137.859375 213.269531 138.628906 211.539062 L 145.546875 194.238281 L 145.546875 194.046875 L 158.042969 162.902344 C 158.042969 162.902344 158.042969 162.707031 158.042969 162.707031 C 158.238281 162.324219 158.429688 161.941406 158.8125 161.746094 C 159.007812 161.363281 159.390625 161.171875 159.773438 160.976562 C 159.773438 160.976562 159.773438 160.976562 159.96875 160.976562 C 160.351562 160.785156 160.542969 160.785156 160.929688 160.785156 C 161.3125 160.785156 161.699219 160.785156 162.082031 160.976562 C 162.082031 160.976562 162.273438 160.976562 162.273438 160.976562 C 162.660156 161.171875 163.042969 161.363281 163.234375 161.746094 C 163.621094 161.941406 163.8125 162.324219 164.003906 162.707031 C 164.003906 162.707031 164.003906 162.902344 164.003906 162.902344 L 176.5 194.046875 L 176.5 194.238281 L 183.421875 211.539062 C 184 213.269531 183.230469 215.191406 181.691406 215.769531 C 179.960938 216.347656 178.039062 215.578125 177.460938 214.039062 L 171.308594 198.660156 L 150.738281 198.660156 L 144.585938 214.039062 C 144.011719 215.191406 142.855469 215.960938 141.511719 215.960938 Z M 214.757812 216.15625 L 197.648438 216.15625 C 195.917969 216.15625 194.574219 214.808594 194.574219 213.078125 C 194.574219 211.15625 195.917969 209.808594 197.648438 209.808594 L 211.492188 209.808594 L 211.492188 166.9375 L 197.648438 166.9375 C 195.917969 166.9375 194.574219 165.59375 194.574219 163.863281 C 194.574219 161.941406 195.917969 160.59375 197.648438 160.59375 L 231.675781 160.59375 C 233.40625 160.59375 234.945312 161.941406 234.945312 163.863281 C 234.945312 165.59375 233.40625 166.9375 231.675781 166.9375 L 217.835938 166.9375 L 217.835938 209.808594 L 231.675781 209.808594 C 233.40625 209.808594 234.945312 211.15625 234.945312 213.078125 C 234.945312 214.808594 233.40625 216.15625 231.675781 216.15625 Z M 168.8125 192.125 L 160.929688 172.707031 L 153.238281 192.125 Z M 168.8125 192.125 " fill-opacity="1" fill-rule="evenodd"/><path fill="#f68321" d="M 174.195312 135.984375 C 172.464844 135.984375 170.925781 134.449219 170.925781 132.71875 L 170.925781 60.238281 C 170.925781 58.507812 172.464844 56.972656 174.195312 56.972656 C 175.925781 56.972656 177.269531 58.507812 177.269531 60.238281 L 177.269531 132.71875 C 177.269531 134.449219 175.925781 135.984375 174.195312 135.984375 Z M 174.195312 135.984375 " fill-opacity="1" fill-rule="evenodd"/><g clip-path="url(#3b86265d58)"><path fill="#f68321" d="M 174.195312 63.507812 C 164.582031 63.507812 156.699219 55.625 156.699219 46.011719 C 156.699219 36.59375 164.582031 28.710938 174.195312 28.710938 C 183.804688 28.710938 191.496094 36.59375 191.496094 46.011719 C 191.496094 55.625 183.804688 63.507812 174.195312 63.507812 Z M 174.195312 63.507812 " fill-opacity="1" fill-rule="evenodd"/></g><path fill="#f68321" d="M 208.222656 135.984375 C 206.492188 135.984375 204.953125 134.449219 204.953125 132.71875 L 204.953125 102.726562 C 204.953125 100.996094 206.492188 99.457031 208.222656 99.457031 C 209.953125 99.457031 211.492188 100.996094 211.492188 102.726562 L 211.492188 132.71875 C 211.492188 134.449219 209.953125 135.984375 208.222656 135.984375 Z M 208.222656 135.984375 " fill-opacity="1" fill-rule="evenodd"/><path fill="#f68321" d="M 208.222656 105.996094 C 198.609375 105.996094 190.917969 98.113281 190.917969 88.5 C 190.917969 79.078125 198.609375 71.199219 208.222656 71.199219 C 217.835938 71.199219 225.523438 79.078125 225.523438 88.5 C 225.523438 98.113281 217.835938 105.996094 208.222656 105.996094 Z M 208.222656 105.996094 " fill-opacity="1" fill-rule="evenodd"/><path fill="#f68321" d="M 242.25 135.984375 C 240.519531 135.984375 238.980469 134.449219 238.980469 132.71875 L 238.980469 85.808594 C 238.980469 76.386719 246.671875 68.699219 256.09375 68.699219 L 276.472656 68.699219 C 278.203125 68.699219 279.738281 70.234375 279.738281 71.964844 C 279.738281 73.695312 278.203125 75.234375 276.472656 75.234375 L 256.09375 75.234375 C 250.324219 75.234375 245.519531 79.847656 245.519531 85.808594 L 245.519531 132.71875 C 245.519531 134.449219 243.980469 135.984375 242.25 135.984375 Z M 242.25 135.984375 " fill-opacity="1" fill-rule="evenodd"/><path fill="#f68321" d="M 290.699219 89.269531 C 281.085938 89.269531 273.203125 81.578125 273.203125 71.964844 C 273.203125 62.355469 281.085938 54.664062 290.699219 54.664062 C 300.308594 54.664062 308 62.355469 308 71.964844 C 308 81.578125 300.308594 89.269531 290.699219 89.269531 Z M 290.699219 89.269531 " fill-opacity="1" fill-rule="evenodd"/><path fill="#f68321" d="M 140.164062 135.984375 C 138.242188 135.984375 136.898438 134.449219 136.898438 132.71875 L 136.898438 85.808594 C 136.898438 79.847656 132.089844 75.234375 126.324219 75.234375 L 105.945312 75.234375 C 104.023438 75.234375 102.675781 73.695312 102.675781 71.964844 C 102.675781 70.234375 104.023438 68.699219 105.945312 68.699219 L 126.324219 68.699219 C 135.742188 68.699219 143.242188 76.386719 143.242188 85.808594 L 143.242188 132.71875 C 143.242188 134.449219 141.894531 135.984375 140.164062 135.984375 Z M 140.164062 135.984375 " fill-opacity="1" fill-rule="evenodd"/><path fill="#f68321" d="M 91.71875 89.269531 C 82.105469 89.269531 74.414062 81.578125 74.414062 71.964844 C 74.414062 62.355469 82.105469 54.664062 91.71875 54.664062 C 101.332031 54.664062 109.019531 62.355469 109.019531 71.964844 C 109.019531 81.578125 101.332031 89.269531 91.71875 89.269531 Z M 91.71875 89.269531 " fill-opacity="1" fill-rule="evenodd"/><path fill="#f68321" d="M 321.648438 161.171875 L 261.285156 161.171875 C 259.554688 161.171875 258.015625 159.632812 258.015625 157.902344 C 258.015625 156.171875 259.554688 154.828125 261.285156 154.828125 L 321.648438 154.828125 C 323.378906 154.828125 324.726562 156.171875 324.726562 157.902344 C 324.726562 159.632812 323.378906 161.171875 321.648438 161.171875 Z M 321.648438 161.171875 " fill-opacity="1" fill-rule="evenodd"/><g clip-path="url(#26a53786f4)"><path fill="#f68321" d="M 335.683594 175.398438 C 326.265625 175.398438 318.382812 167.515625 318.382812 157.902344 C 318.382812 148.289062 326.265625 140.601562 335.683594 140.601562 C 345.296875 140.601562 353.179688 148.289062 353.179688 157.902344 C 353.179688 167.515625 345.296875 175.398438 335.683594 175.398438 Z M 335.683594 175.398438 " fill-opacity="1" fill-rule="evenodd"/></g><path fill="#f68321" d="M 279.355469 195.96875 L 261.285156 195.96875 C 259.554688 195.96875 258.015625 194.621094 258.015625 192.699219 C 258.015625 190.96875 259.554688 189.625 261.285156 189.625 L 279.355469 189.625 C 281.085938 189.625 282.429688 190.96875 282.429688 192.699219 C 282.429688 194.621094 281.085938 195.96875 279.355469 195.96875 Z M 279.355469 195.96875 " fill-opacity="1" fill-rule="evenodd"/><path fill="#f68321" d="M 293.390625 210.195312 C 283.96875 210.195312 276.085938 202.3125 276.085938 192.699219 C 276.085938 183.28125 283.96875 175.398438 293.390625 175.398438 C 303 175.398438 310.882812 183.28125 310.882812 192.699219 C 310.882812 202.3125 303 210.195312 293.390625 210.195312 Z M 293.390625 210.195312 " fill-opacity="1" fill-rule="evenodd"/><path fill="#f68321" d="M 321.648438 230.574219 L 261.285156 230.574219 C 259.554688 230.574219 258.015625 229.226562 258.015625 227.304688 C 258.015625 225.574219 259.554688 224.230469 261.285156 224.230469 L 321.648438 224.230469 C 323.378906 224.230469 324.726562 225.574219 324.726562 227.304688 C 324.726562 229.226562 323.378906 230.574219 321.648438 230.574219 Z M 321.648438 230.574219 " fill-opacity="1" fill-rule="evenodd"/><g clip-path="url(#3caae7be86)"><path fill="#f68321" d="M 335.683594 244.800781 C 326.265625 244.800781 318.382812 236.917969 318.382812 227.304688 C 318.382812 217.882812 326.265625 210.003906 335.683594 210.003906 C 345.296875 210.003906 353.179688 217.882812 353.179688 227.304688 C 353.179688 236.917969 345.296875 244.800781 335.683594 244.800781 Z M 335.683594 244.800781 " fill-opacity="1" fill-rule="evenodd"/></g><path fill="#f68321" d="M 174.195312 328.429688 C 172.464844 328.429688 170.925781 327.082031 170.925781 325.351562 L 170.925781 252.875 C 170.925781 250.953125 172.464844 249.605469 174.195312 249.605469 C 175.925781 249.605469 177.269531 250.953125 177.269531 252.875 L 177.269531 325.351562 C 177.269531 327.082031 175.925781 328.429688 174.195312 328.429688 Z M 174.195312 328.429688 " fill-opacity="1" fill-rule="evenodd"/><path fill="#f68321" d="M 174.195312 356.882812 C 164.582031 356.882812 156.699219 349 156.699219 339.386719 C 156.699219 329.773438 164.582031 322.085938 174.195312 322.085938 C 183.804688 322.085938 191.496094 329.773438 191.496094 339.386719 C 191.496094 349 183.804688 356.882812 174.195312 356.882812 Z M 174.195312 356.882812 " fill-opacity="1" fill-rule="evenodd"/><path fill="#f68321" d="M 208.222656 285.941406 C 206.492188 285.941406 204.953125 284.59375 204.953125 282.867188 L 204.953125 252.875 C 204.953125 250.953125 206.492188 249.605469 208.222656 249.605469 C 209.953125 249.605469 211.492188 250.953125 211.492188 252.875 L 211.492188 282.867188 C 211.492188 284.59375 209.953125 285.941406 208.222656 285.941406 Z M 208.222656 285.941406 " fill-opacity="1" fill-rule="evenodd"/><path fill="#f68321" d="M 208.222656 314.394531 C 198.609375 314.394531 190.917969 306.511719 190.917969 296.898438 C 190.917969 287.289062 198.609375 279.597656 208.222656 279.597656 C 217.835938 279.597656 225.523438 287.289062 225.523438 296.898438 C 225.523438 306.511719 217.835938 314.394531 208.222656 314.394531 Z M 208.222656 314.394531 " fill-opacity="1" fill-rule="evenodd"/><path fill="#f68321" d="M 276.472656 316.703125 L 256.09375 316.703125 C 246.671875 316.703125 238.980469 309.203125 238.980469 299.785156 L 238.980469 252.875 C 238.980469 250.953125 240.519531 249.605469 242.25 249.605469 C 243.980469 249.605469 245.519531 250.953125 245.519531 252.875 L 245.519531 299.785156 C 245.519531 305.550781 250.324219 310.355469 256.09375 310.355469 L 276.472656 310.355469 C 278.203125 310.355469 279.738281 311.703125 279.738281 313.625 C 279.738281 315.355469 278.203125 316.703125 276.472656 316.703125 Z M 276.472656 316.703125 " fill-opacity="1" fill-rule="evenodd"/><path fill="#f68321" d="M 290.699219 330.929688 C 281.085938 330.929688 273.203125 323.046875 273.203125 313.625 C 273.203125 304.011719 281.085938 296.128906 290.699219 296.128906 C 300.308594 296.128906 308 304.011719 308 313.625 C 308 323.046875 300.308594 330.929688 290.699219 330.929688 Z M 290.699219 330.929688 " fill-opacity="1" fill-rule="evenodd"/><path fill="#f68321" d="M 126.324219 316.703125 L 105.945312 316.703125 C 104.023438 316.703125 102.675781 315.355469 102.675781 313.625 C 102.675781 311.703125 104.023438 310.355469 105.945312 310.355469 L 126.324219 310.355469 C 132.089844 310.355469 136.898438 305.550781 136.898438 299.785156 L 136.898438 252.875 C 136.898438 250.953125 138.242188 249.605469 140.164062 249.605469 C 141.894531 249.605469 143.242188 250.953125 143.242188 252.875 L 143.242188 299.785156 C 143.242188 309.203125 135.742188 316.703125 126.324219 316.703125 Z M 126.324219 316.703125 " fill-opacity="1" fill-rule="evenodd"/><path fill="#f68321" d="M 91.71875 330.929688 C 82.105469 330.929688 74.414062 323.046875 74.414062 313.625 C 74.414062 304.011719 82.105469 296.128906 91.71875 296.128906 C 101.332031 296.128906 109.019531 304.011719 109.019531 313.625 C 109.019531 323.046875 101.332031 330.929688 91.71875 330.929688 Z M 91.71875 330.929688 " fill-opacity="1" fill-rule="evenodd"/><path fill="#f68321" d="M 121.132812 161.171875 L 60.765625 161.171875 C 59.035156 161.171875 57.496094 159.824219 57.496094 158.09375 C 57.496094 156.171875 59.035156 154.828125 60.765625 154.828125 L 121.132812 154.828125 C 122.863281 154.828125 124.207031 156.171875 124.207031 158.09375 C 124.207031 159.824219 122.863281 161.171875 121.132812 161.171875 Z M 121.132812 161.171875 " fill-opacity="1" fill-rule="evenodd"/><g clip-path="url(#83d1fc88d6)"><path fill="#f68321" d="M 46.539062 175.398438 C 37.117188 175.398438 29.238281 167.707031 29.238281 158.09375 C 29.238281 148.480469 37.117188 140.601562 46.539062 140.601562 C 56.152344 140.601562 64.035156 148.480469 64.035156 158.09375 C 64.035156 167.707031 56.152344 175.398438 46.539062 175.398438 Z M 46.539062 175.398438 " fill-opacity="1" fill-rule="evenodd"/></g><path fill="#f68321" d="M 121.132812 195.96875 L 103.0625 195.96875 C 101.332031 195.96875 99.792969 194.621094 99.792969 192.890625 C 99.792969 191.160156 101.332031 189.625 103.0625 189.625 L 121.132812 189.625 C 122.863281 189.625 124.207031 191.160156 124.207031 192.890625 C 124.207031 194.621094 122.863281 195.96875 121.132812 195.96875 Z M 121.132812 195.96875 " fill-opacity="1" fill-rule="evenodd"/><path fill="#f68321" d="M 88.835938 210.195312 C 79.222656 210.195312 71.53125 202.503906 71.53125 192.890625 C 71.53125 183.28125 79.222656 175.398438 88.835938 175.398438 C 98.445312 175.398438 106.328125 183.28125 106.328125 192.890625 C 106.328125 202.503906 98.445312 210.195312 88.835938 210.195312 Z M 88.835938 210.195312 " fill-opacity="1" fill-rule="evenodd"/><path fill="#f68321" d="M 121.132812 230.765625 L 60.765625 230.765625 C 59.035156 230.765625 57.496094 229.226562 57.496094 227.496094 C 57.496094 225.765625 59.035156 224.230469 60.765625 224.230469 L 121.132812 224.230469 C 122.863281 224.230469 124.207031 225.765625 124.207031 227.496094 C 124.207031 229.226562 122.863281 230.765625 121.132812 230.765625 Z M 121.132812 230.765625 " fill-opacity="1" fill-rule="evenodd"/><g clip-path="url(#7962c86f8d)"><path fill="#f68321" d="M 46.539062 244.800781 C 37.117188 244.800781 29.238281 237.109375 29.238281 227.496094 C 29.238281 217.882812 37.117188 210.195312 46.539062 210.195312 C 56.152344 210.195312 64.035156 217.882812 64.035156 227.496094 C 64.035156 237.109375 56.152344 244.800781 46.539062 244.800781 Z M 46.539062 244.800781 " fill-opacity="1" fill-rule="evenodd"/></g></svg>