<svg xmlns="http://www.w3.org/2000/svg" xmlns:xlink="http://www.w3.org/1999/xlink" width="512" zoomAndPan="magnify" viewBox="0 0 384 383.999986" height="512" preserveAspectRatio="xMidYMid meet" version="1.0"><defs><clipPath id="fa2a13c08e"><path d="M 38.398438 57.515625 L 355.648438 57.515625 L 355.648438 326.765625 L 38.398438 326.765625 Z M 38.398438 57.515625 " clip-rule="nonzero"/></clipPath></defs><g clip-path="url(#fa2a13c08e)"><path fill="#f68321" d="M 214.171875 80.667969 C 228.507812 83.90625 241.929688 89.554688 253.984375 97.167969 C 254.1875 97.296875 254.421875 97.304688 254.632812 97.199219 L 269.914062 89.410156 C 273.519531 87.574219 277.71875 88.238281 280.578125 91.101562 L 289.203125 99.722656 C 289.351562 99.871094 289.414062 100.0625 289.390625 100.269531 C 289.363281 100.476562 289.253906 100.644531 289.070312 100.75 L 241.378906 128.679688 C 241.152344 128.8125 240.882812 128.800781 240.667969 128.644531 C 225.253906 117.59375 206.363281 111.085938 185.949219 111.085938 C 97.5625 111.085938 70.351562 206.101562 107.855469 261.054688 C 107.996094 261.257812 108.011719 261.507812 107.894531 261.726562 C 107.777344 261.945312 107.566406 262.074219 107.316406 262.074219 L 72.164062 262.074219 C 71.910156 262.074219 71.691406 261.9375 71.578125 261.710938 C 67.15625 252.792969 63.75 243.285156 61.503906 233.335938 C 61.449219 233.105469 61.292969 232.929688 61.066406 232.855469 L 44.761719 227.558594 C 40.914062 226.308594 38.414062 222.871094 38.414062 218.824219 L 38.414062 191.40625 C 38.414062 187.359375 40.914062 183.921875 44.761719 182.671875 L 61.066406 177.375 C 61.292969 177.300781 61.453125 177.128906 61.503906 176.894531 C 64.742188 162.558594 70.386719 149.136719 78.003906 137.078125 C 78.128906 136.878906 78.140625 136.644531 78.03125 136.433594 L 70.246094 121.148438 C 68.40625 117.542969 69.074219 113.347656 71.933594 110.484375 L 91.320312 91.097656 C 94.183594 88.238281 98.378906 87.570312 101.984375 89.410156 L 117.269531 97.195312 C 117.480469 97.304688 117.714844 97.292969 117.914062 97.167969 C 129.972656 89.550781 143.394531 83.90625 157.730469 80.667969 C 157.960938 80.613281 158.136719 80.457031 158.207031 80.230469 L 163.507812 63.925781 C 164.757812 60.078125 168.195312 57.578125 172.242188 57.578125 L 199.660156 57.578125 C 203.707031 57.578125 207.144531 60.078125 208.394531 63.925781 L 213.691406 80.230469 C 213.765625 80.457031 213.9375 80.617188 214.171875 80.667969 Z M 326.566406 109.917969 C 326.710938 109.808594 326.878906 109.769531 327.058594 109.796875 C 327.238281 109.828125 327.382812 109.917969 327.488281 110.066406 L 336.53125 122.953125 C 336.671875 123.15625 336.894531 123.257812 337.140625 123.230469 C 337.382812 123.203125 337.578125 123.054688 337.671875 122.824219 L 355.234375 79.605469 C 355.324219 79.386719 355.289062 79.152344 355.144531 78.960938 C 355 78.773438 354.78125 78.679688 354.542969 78.710938 L 306.5 84.890625 C 306.238281 84.925781 306.03125 85.101562 305.957031 85.355469 C 305.882812 85.609375 305.960938 85.867188 306.164062 86.039062 L 316.738281 94.902344 C 316.902344 95.042969 316.988281 95.242188 316.96875 95.460938 C 316.949219 95.679688 316.835938 95.859375 316.648438 95.96875 L 211.75 157.394531 C 211.542969 157.519531 211.304688 157.519531 211.09375 157.398438 L 176.640625 137.734375 C 176.382812 137.585938 176.0625 137.628906 175.851562 137.84375 L 99.757812 214.742188 C 97.597656 216.921875 100.425781 221.375 104.074219 219.074219 L 177.554688 172.667969 C 177.765625 172.535156 178.015625 172.53125 178.230469 172.65625 L 213.066406 192.980469 C 213.296875 193.113281 213.570312 193.101562 213.785156 192.941406 Z M 68.929688 271.882812 L 302.972656 271.882812 C 317.964844 271.882812 330.234375 284.152344 330.234375 299.144531 C 330.234375 314.140625 317.964844 326.40625 302.972656 326.40625 L 68.929688 326.40625 C 53.933594 326.40625 41.667969 314.140625 41.667969 299.144531 C 41.667969 284.152344 53.933594 271.882812 68.929688 271.882812 Z M 98.492188 288.125 C 92.40625 288.125 87.472656 293.058594 87.472656 299.144531 C 87.472656 305.234375 92.40625 310.167969 98.492188 310.167969 C 104.582031 310.167969 109.515625 305.234375 109.515625 299.144531 C 109.515625 293.058594 104.582031 288.125 98.492188 288.125 Z M 273.40625 288.125 C 267.320312 288.125 262.386719 293.058594 262.386719 299.144531 C 262.386719 305.234375 267.320312 310.167969 273.40625 310.167969 C 279.496094 310.167969 284.429688 305.234375 284.429688 299.144531 C 284.429688 293.058594 279.496094 288.125 273.40625 288.125 Z M 215.101562 288.125 C 209.015625 288.125 204.082031 293.058594 204.082031 299.144531 C 204.082031 305.234375 209.015625 310.167969 215.101562 310.167969 C 221.191406 310.167969 226.125 305.234375 226.125 299.144531 C 226.125 293.058594 221.191406 288.125 215.101562 288.125 Z M 156.796875 288.125 C 150.710938 288.125 145.777344 293.058594 145.777344 299.144531 C 145.777344 305.234375 150.710938 310.167969 156.796875 310.167969 C 162.886719 310.167969 167.820312 305.234375 167.820312 299.144531 C 167.820312 293.058594 162.886719 288.125 156.796875 288.125 Z M 227.15625 214.886719 L 216.230469 214.886719 C 215.871094 214.886719 215.578125 215.179688 215.578125 215.539062 L 215.578125 224.328125 C 215.578125 226.328125 217.214844 227.964844 219.214844 227.964844 L 224.171875 227.964844 C 226.171875 227.964844 227.8125 226.328125 227.8125 224.328125 L 227.8125 215.539062 C 227.8125 215.179688 227.515625 214.886719 227.15625 214.886719 Z M 241.066406 214.886719 L 238.273438 214.886719 C 237.914062 214.886719 237.617188 215.179688 237.617188 215.539062 L 237.617188 224.328125 C 237.617188 231.742188 231.585938 237.773438 224.171875 237.773438 L 219.214844 237.773438 C 211.800781 237.773438 205.765625 231.742188 205.765625 224.328125 L 205.765625 215.539062 C 205.765625 215.179688 205.472656 214.886719 205.113281 214.886719 L 202.316406 214.886719 C 198.605469 214.886719 195.578125 217.914062 195.578125 221.625 L 195.578125 261.421875 C 195.578125 261.78125 195.871094 262.074219 196.234375 262.074219 L 247.152344 262.074219 C 247.511719 262.074219 247.804688 261.78125 247.804688 261.421875 L 247.804688 221.625 C 247.808594 217.914062 244.78125 214.886719 241.066406 214.886719 Z M 155.476562 214.886719 L 144.414062 214.886719 C 144.054688 214.886719 143.761719 215.179688 143.761719 215.539062 L 143.761719 224.429688 C 143.761719 226.453125 145.417969 228.109375 147.441406 228.109375 L 152.453125 228.109375 C 154.476562 228.109375 156.132812 226.453125 156.132812 224.429688 L 156.132812 215.539062 C 156.132812 215.179688 155.835938 214.886719 155.476562 214.886719 Z M 169.320312 214.886719 L 166.59375 214.886719 C 166.234375 214.886719 165.941406 215.179688 165.941406 215.539062 L 165.941406 224.429688 C 165.941406 231.867188 159.890625 237.917969 152.453125 237.917969 L 147.441406 237.917969 C 140.003906 237.917969 133.953125 231.867188 133.953125 224.429688 L 133.953125 215.539062 C 133.953125 215.179688 133.660156 214.886719 133.300781 214.886719 L 130.570312 214.886719 C 126.859375 214.886719 123.832031 217.914062 123.832031 221.625 L 123.832031 261.421875 C 123.832031 261.78125 124.125 262.074219 124.488281 262.074219 L 175.40625 262.074219 C 175.769531 262.074219 176.0625 261.78125 176.0625 261.421875 L 176.0625 221.625 C 176.058594 217.914062 173.03125 214.886719 169.320312 214.886719 Z M 261.550781 261.035156 C 261.398438 261.238281 261.375 261.492188 261.488281 261.71875 C 261.605469 261.941406 261.820312 262.074219 262.074219 262.074219 L 299.738281 262.074219 C 299.992188 262.074219 300.210938 261.941406 300.324219 261.710938 C 304.746094 252.792969 308.152344 243.285156 310.398438 233.335938 C 310.453125 233.105469 310.609375 232.933594 310.835938 232.859375 L 327.140625 227.558594 C 330.988281 226.308594 333.488281 222.871094 333.488281 218.824219 L 333.488281 191.410156 C 333.488281 187.363281 330.988281 183.921875 327.140625 182.671875 L 310.835938 177.375 C 310.609375 177.300781 310.449219 177.128906 310.398438 176.898438 C 307.773438 165.265625 303.558594 154.234375 297.996094 144.050781 C 297.902344 143.878906 297.753906 143.765625 297.566406 143.722656 C 297.375 143.679688 297.191406 143.71875 297.035156 143.835938 L 270.734375 163.195312 C 270.480469 163.386719 270.398438 163.722656 270.535156 164.007812 C 285.90625 195.574219 282.28125 233.046875 261.550781 261.035156 Z M 261.550781 261.035156 " fill-opacity="1" fill-rule="evenodd"/></g></svg>