<svg xmlns="http://www.w3.org/2000/svg" xmlns:xlink="http://www.w3.org/1999/xlink" width="512" zoomAndPan="magnify" viewBox="0 0 384 383.999986" height="512" preserveAspectRatio="xMidYMid meet" version="1.0"><defs><clipPath id="090246dd0f"><path d="M 38.398438 66.625 L 345.898438 66.625 L 345.898438 317.125 L 38.398438 317.125 Z M 38.398438 66.625 " clip-rule="nonzero"/></clipPath></defs><path fill="#f68321" d="M 60.433594 88.578125 C 55.804688 93.503906 62.808594 100.484375 67.699219 95.84375 C 72.34375 90.945312 65.34375 84.054688 60.433594 88.578125 Z M 60.433594 88.578125 " fill-opacity="1" fill-rule="nonzero"/><path fill="#f68321" d="M 84.535156 97.328125 C 91.257812 97.199219 91.257812 87.222656 84.535156 87.09375 C 77.8125 87.222656 77.8125 97.199219 84.535156 97.328125 Z M 84.535156 97.328125 " fill-opacity="1" fill-rule="nonzero"/><path fill="#f68321" d="M 108.636719 88.578125 C 103.726562 84.070312 96.734375 90.921875 101.371094 95.84375 C 106.253906 100.484375 113.21875 93.503906 108.636719 88.578125 Z M 108.636719 88.578125 " fill-opacity="1" fill-rule="nonzero"/><path fill="#f68321" d="M 79.417969 117.796875 L 130.589844 117.796875 C 131.597656 117.796875 132.597656 117.894531 133.585938 118.089844 C 134.574219 118.289062 135.535156 118.578125 136.464844 118.964844 C 137.398438 119.351562 138.28125 119.824219 139.121094 120.382812 C 139.957031 120.945312 140.734375 121.582031 141.445312 122.292969 C 142.160156 123.007812 142.796875 123.78125 143.355469 124.621094 C 143.914062 125.457031 144.386719 126.34375 144.773438 127.273438 C 145.160156 128.203125 145.449219 129.164062 145.648438 130.152344 C 145.84375 131.140625 145.941406 132.140625 145.941406 133.148438 L 145.941406 174.085938 C 145.941406 175.09375 145.84375 176.09375 145.648438 177.082031 C 145.449219 178.070312 145.160156 179.03125 144.773438 179.960938 C 144.386719 180.894531 143.914062 181.777344 143.355469 182.617188 C 142.796875 183.453125 142.160156 184.230469 141.445312 184.941406 C 140.734375 185.65625 139.957031 186.292969 139.121094 186.851562 C 138.28125 187.410156 137.398438 187.882812 136.464844 188.269531 C 135.535156 188.65625 134.574219 188.945312 133.585938 189.144531 C 132.597656 189.339844 131.597656 189.4375 130.589844 189.4375 L 79.417969 189.4375 C 78.410156 189.4375 77.410156 189.339844 76.421875 189.144531 C 75.433594 188.945312 74.472656 188.65625 73.542969 188.269531 C 72.613281 187.882812 71.726562 187.410156 70.890625 186.851562 C 70.050781 186.292969 69.273438 185.65625 68.5625 184.941406 C 67.851562 184.230469 67.214844 183.453125 66.652344 182.617188 C 66.09375 181.777344 65.621094 180.894531 65.234375 179.960938 C 64.847656 179.03125 64.558594 178.070312 64.359375 177.082031 C 64.164062 176.09375 64.066406 175.09375 64.066406 174.085938 L 64.066406 133.148438 C 64.066406 132.140625 64.164062 131.140625 64.359375 130.152344 C 64.558594 129.164062 64.847656 128.203125 65.234375 127.273438 C 65.621094 126.34375 66.09375 125.457031 66.652344 124.621094 C 67.214844 123.78125 67.851562 123.007812 68.5625 122.292969 C 69.273438 121.582031 70.050781 120.945312 70.890625 120.382812 C 71.726562 119.824219 72.613281 119.351562 73.542969 118.964844 C 74.472656 118.578125 75.433594 118.289062 76.421875 118.089844 C 77.410156 117.894531 78.410156 117.796875 79.417969 117.796875 Z M 79.417969 117.796875 " fill-opacity="1" fill-rule="nonzero"/><path fill="#f68321" d="M 181.761719 199.671875 L 69.183594 199.671875 C 62.492188 199.773438 62.425781 209.792969 69.183594 209.90625 L 181.761719 209.90625 C 188.453125 209.808594 188.519531 199.785156 181.761719 199.671875 Z M 181.761719 199.671875 " fill-opacity="1" fill-rule="nonzero"/><path fill="#f68321" d="M 181.761719 220.140625 L 69.183594 220.140625 C 62.492188 220.242188 62.425781 230.261719 69.183594 230.375 L 181.761719 230.375 C 188.453125 230.277344 188.519531 220.253906 181.761719 220.140625 Z M 181.761719 220.140625 " fill-opacity="1" fill-rule="nonzero"/><path fill="#f68321" d="M 181.761719 148.5 L 161.292969 148.5 C 154.574219 148.609375 154.5625 158.625 161.292969 158.734375 L 181.761719 158.734375 C 188.484375 158.625 188.496094 148.609375 181.761719 148.5 Z M 181.761719 148.5 " fill-opacity="1" fill-rule="nonzero"/><path fill="#f68321" d="M 181.761719 168.96875 L 161.292969 168.96875 C 154.574219 169.078125 154.5625 179.09375 161.292969 179.203125 L 181.761719 179.203125 C 188.484375 179.09375 188.496094 169.082031 181.761719 168.96875 Z M 181.761719 168.96875 " fill-opacity="1" fill-rule="nonzero"/><g clip-path="url(#090246dd0f)"><path fill="#f68321" d="M 325.046875 112.679688 L 325.046875 87.09375 C 325.046875 75.804688 315.867188 66.625 304.578125 66.625 L 58.949219 66.625 C 47.660156 66.625 38.480469 75.804688 38.480469 87.09375 L 38.480469 250.84375 C 38.480469 262.132812 47.660156 271.316406 58.949219 271.316406 L 202.230469 271.316406 L 202.230469 296.902344 C 202.230469 308.191406 211.414062 317.371094 222.703125 317.371094 L 325.046875 317.371094 C 336.335938 317.371094 345.515625 308.191406 345.515625 296.902344 L 345.515625 133.148438 C 345.515625 121.859375 336.335938 112.679688 325.046875 112.679688 Z M 202.230469 133.148438 L 202.230469 261.082031 L 58.949219 261.082031 C 53.308594 261.082031 48.714844 256.488281 48.714844 250.84375 L 48.714844 87.09375 C 48.714844 81.449219 53.308594 76.859375 58.949219 76.859375 L 304.578125 76.859375 C 310.21875 76.859375 314.8125 81.449219 314.8125 87.09375 L 314.8125 112.679688 L 222.703125 112.679688 C 211.414062 112.679688 202.230469 121.859375 202.230469 133.148438 Z M 335.28125 296.902344 C 335.28125 302.542969 330.6875 307.136719 325.046875 307.136719 L 222.703125 307.136719 C 217.058594 307.136719 212.464844 302.542969 212.464844 296.902344 L 212.464844 133.148438 C 212.464844 127.507812 217.058594 122.914062 222.703125 122.914062 L 251.488281 122.914062 C 253.203125 127.335938 258.425781 130.589844 264.664062 130.589844 L 283.085938 130.589844 C 289.324219 130.589844 294.546875 127.335938 296.257812 122.914062 L 325.046875 122.914062 C 330.6875 122.914062 335.28125 127.507812 335.28125 133.148438 Z M 335.28125 296.902344 " fill-opacity="1" fill-rule="nonzero"/></g><path fill="#f68321" d="M 284.109375 291.785156 L 263.640625 291.785156 C 256.917969 291.894531 256.90625 301.90625 263.640625 302.019531 L 284.109375 302.019531 C 290.828125 301.910156 290.839844 291.894531 284.109375 291.785156 Z M 284.109375 291.785156 " fill-opacity="1" fill-rule="nonzero"/><path fill="#f68321" d="M 260.824219 246.238281 C 255.109375 246.339844 255.109375 254.839844 260.824219 254.9375 C 266.542969 254.839844 266.539062 246.339844 260.824219 246.238281 Z M 260.824219 246.238281 " fill-opacity="1" fill-rule="nonzero"/><path fill="#f68321" d="M 256.476562 237.539062 L 299.972656 237.539062 C 304.765625 237.539062 308.671875 233.636719 308.671875 228.839844 L 308.671875 202.742188 L 247.777344 202.742188 L 247.777344 228.839844 C 247.777344 233.636719 251.679688 237.539062 256.476562 237.539062 Z M 286.921875 211.441406 C 286.945312 205.757812 295.601562 205.75 295.621094 211.441406 C 295.621094 211.441406 295.621094 224.492188 295.621094 224.492188 C 295.527344 230.207031 287.015625 230.210938 286.921875 224.492188 C 286.921875 224.492188 286.921875 211.441406 286.921875 211.441406 Z M 260.824219 211.441406 C 260.917969 205.730469 269.429688 205.722656 269.523438 211.441406 L 269.523438 224.492188 C 269.429688 230.207031 260.917969 230.210938 260.824219 224.492188 C 260.824219 224.492188 260.824219 211.441406 260.824219 211.441406 Z M 260.824219 211.441406 " fill-opacity="1" fill-rule="nonzero"/><path fill="#f68321" d="M 217.585938 289.226562 L 330.164062 289.226562 L 330.164062 135.707031 L 217.585938 135.707031 Z M 234.726562 176.644531 L 243.425781 176.644531 C 245.832031 176.644531 247.777344 178.589844 247.777344 180.996094 L 247.777344 194.042969 L 313.019531 194.042969 C 315.425781 194.042969 317.371094 195.988281 317.371094 198.394531 L 317.371094 228.839844 C 317.371094 235.863281 313.171875 241.890625 307.167969 244.636719 C 311.816406 252.921875 305.148438 263.886719 295.621094 263.636719 C 286.8125 263.8125 280.171875 254.453125 283.375 246.238281 L 273.074219 246.238281 C 276.269531 254.457031 269.636719 263.8125 260.824219 263.636719 C 251.296875 263.886719 244.628906 252.921875 249.28125 244.636719 C 243.277344 241.890625 239.078125 235.863281 239.078125 228.839844 L 239.078125 185.34375 L 234.726562 185.34375 C 229.007812 185.25 229.011719 176.738281 234.726562 176.644531 Z M 234.726562 176.644531 " fill-opacity="1" fill-rule="nonzero"/><path fill="#f68321" d="M 295.621094 246.238281 C 289.90625 246.339844 289.90625 254.839844 295.621094 254.9375 C 301.339844 254.839844 301.339844 246.339844 295.621094 246.238281 Z M 295.621094 246.238281 " fill-opacity="1" fill-rule="nonzero"/></svg>