<svg xmlns="http://www.w3.org/2000/svg" version="1.1" xmlns:xlink="http://www.w3.org/1999/xlink" width="512" height="512" x="0" y="0" viewBox="0 0 550 550" style="enable-background:new 0 0 512 512" xml:space="preserve" class=""><g><path fill="#3fa9f5" d="M83.6 406.1H39c-11 0-20-8.1-20-18.1v-11.6c0-10 9-18.1 20-18.1h63.5c3.2 0 5.9 2.6 5.9 5.9s-2.6 5.9-5.9 5.9H39c-4.5 0-8.3 2.9-8.3 6.3V388c0 3.4 3.8 6.3 8.3 6.3h44.5c3.2 0 5.9 2.6 5.9 5.9 0 3.2-2.6 5.9-5.8 5.9zM391 406.1H181.8c-3.2 0-5.9-2.6-5.9-5.9 0-3.2 2.6-5.9 5.9-5.9H391c3.2 0 5.9 2.6 5.9 5.9 0 3.2-2.6 5.9-5.9 5.9zM344.3 370.1H165.5c-3.2 0-5.9-2.6-5.9-5.9s2.6-5.9 5.9-5.9h178.8c3.2 0 5.9 2.6 5.9 5.9s-2.7 5.9-5.9 5.9z" opacity="1" data-original="#3fa9f5" class=""></path><path fill="#3fa9f5" d="M531 321v79.2c0 3.2-2.6 5.9-5.9 5.9h-38.4c-3.2 0-5.9-2.6-5.9-5.9 0-3.2 2.6-5.9 5.9-5.9h32.5V323l-5.8-7.8-83.1-112.4-8.8-11.9h-71.4v203.5H391c1.2 0 2.3.4 3.3 1 1.6 1.1 2.6 2.8 2.6 4.9 0 1.6-.7 3.1-1.7 4.1-1.1 1.1-2.5 1.7-4.2 1.7h-47c-3.2-.1-5.7-2.7-5.7-5.9V185c0-3.2 2.6-5.9 5.9-5.9H425c.1 0 .3 0 .4.1.1 0 .2 0 .3.1.1 0 .2 0 .3.1.1 0 .2.1.3.1h.1c.1 0 .2.1.3.1s.2.1.3.1l.6.3c.4.2.7.5 1 .8l.2.2.3.3c.1.1.1.2.2.3l100.4 135.8c0 .1.1.1.1.2.1.1.1.2.2.3.3.5.5 1 .6 1.6 0 .1.1.2.1.4v.5c.3.3.3.5.3.6z" opacity="1" data-original="#3fa9f5" class=""></path><path fill="#3fa9f5" d="M35.6 370.4c-3.2 0-5.9-2.6-5.9-5.9V139.9c0-24.1 20.3-43.8 45.4-43.8l238.9 1c.4 0 .9.1 1.3.1 20.6 4.7 34.9 22.2 34.9 42.6v224.3c0 3.2-2.6 5.9-5.9 5.9-3.2 0-5.9-2.6-5.9-5.9V139.9c0-14.7-10.3-27.4-25.2-31.1l-238.2-1c-18.5 0-33.6 14.4-33.6 32.1v224.7c0 3.2-2.6 5.8-5.8 5.8z" opacity="1" data-original="#3fa9f5" class=""></path><path fill="#3fa9f5" d="M187.4 394.3c-1-8.9-4.1-17.2-9-24.3-3-4.4-6.7-8.4-10.8-11.7-9.2-7.4-20.9-11.8-33.6-11.8s-24.4 4.4-33.6 11.8c-4.2 3.4-7.8 7.3-10.8 11.7-4.8 7.1-8 15.4-9 24.3a58.28 58.28 0 0 0 0 11.8c2.9 26.9 25.8 47.8 53.4 47.8s50.5-21 53.4-47.8a58.28 58.28 0 0 0 0-11.8zM134 442.2c-23.1 0-42-18.8-42-42 0-23.1 18.8-42 42-42 23.1 0 42 18.8 42 42 0 23.1-18.9 42-42 42z" opacity="1" data-original="#3fa9f5" class=""></path><g fill="#3fa9f5"><path d="M134 369.9c-16.7 0-30.3 13.6-30.3 30.3s13.6 30.3 30.3 30.3 30.3-13.6 30.3-30.3-13.6-30.3-30.3-30.3zm0 48.9c-10.2 0-18.6-8.3-18.6-18.6 0-10.2 8.3-18.6 18.6-18.6 10.2 0 18.6 8.3 18.6 18.6 0 10.2-8.4 18.6-18.6 18.6z" fill="#3fa9f5" opacity="1" data-original="#3fa9f5" class=""></path><circle cx="134" cy="400.2" r="18.6" fill="#3fa9f5" opacity="1" data-original="#3fa9f5" class=""></circle></g><path fill="#3fa9f5" d="M492.3 394.4c-2.9-26.9-25.7-47.8-53.4-47.8s-50.5 21-53.4 47.8a58.28 58.28 0 0 0 0 11.8c2.9 26.9 25.7 47.8 53.4 47.8 27.6 0 50.4-21 53.4-47.8.2-1.9.3-3.9.3-5.9 0-2.1-.1-4-.3-5.9zm-53.4 47.8c-23.1 0-42-18.8-42-42 0-23.1 18.8-42 42-42 23.1 0 42 18.8 42 42 0 23.1-18.9 42-42 42z" opacity="1" data-original="#3fa9f5" class=""></path><g fill="#3fa9f5"><path d="M438.9 369.9c-16.7 0-30.3 13.6-30.3 30.3s13.6 30.3 30.3 30.3 30.3-13.6 30.3-30.3-13.6-30.3-30.3-30.3zm0 48.9c-10.2 0-18.6-8.3-18.6-18.6 0-10.2 8.3-18.6 18.6-18.6 10.2 0 18.6 8.3 18.6 18.6 0 10.2-8.4 18.6-18.6 18.6z" fill="#3fa9f5" opacity="1" data-original="#3fa9f5" class=""></path><circle cx="438.9" cy="400.2" r="18.6" fill="#3fa9f5" opacity="1" data-original="#3fa9f5" class=""></circle></g><g fill="#3fa9f5"><path d="M513.5 315.2h-83.1V202.8z" fill="#3fa9f5" opacity="1" data-original="#3fa9f5" class=""></path><path d="M531 321c0 3.2-2.6 5.9-5.9 5.9H424.5c-3.2 0-5.9-2.6-5.9-5.9V185c0-3.2 2.6-5.9 5.9-5.9h.6c.1 0 .3 0 .4.1.1 0 .2 0 .3.1.1 0 .2 0 .3.1.1 0 .2.1.3.1h.1c.1 0 .2.1.3.1s.2.1.3.1l.6.3c.4.2.7.5 1 .8l.2.2.3.3c.1.1.1.2.2.3.6.9 1 2.1 1 3.3v130.2h94.7c2 0 3.8 1 4.8 2.6.1.1.1.2.2.3.3.5.5 1 .6 1.6 0 .1.1.2.1.4v.5c.2.2.2.4.2.5z" fill="#3fa9f5" opacity="1" data-original="#3fa9f5" class=""></path></g><path fill="#3fa9f5" d="M397 241h-27.9c-3.2 0-5.9-2.6-5.9-5.9s2.6-5.9 5.9-5.9H397c3.2 0 5.9 2.6 5.9 5.9s-2.6 5.9-5.9 5.9zM397 269.6h-27.9c-3.2 0-5.9-2.6-5.9-5.9 0-3.2 2.6-5.9 5.9-5.9H397c3.2 0 5.9 2.6 5.9 5.9s-2.6 5.9-5.9 5.9zM397 298.2h-27.9c-3.2 0-5.9-2.6-5.9-5.9s2.6-5.9 5.9-5.9H397c3.2 0 5.9 2.6 5.9 5.9s-2.6 5.9-5.9 5.9zM315.6 325.4H64.3c-3.2 0-5.9-2.6-5.9-5.9V147c0-3.2 2.6-5.9 5.9-5.9h251.3c3.2 0 5.9 2.6 5.9 5.9v172.6c-.1 3.2-2.7 5.8-5.9 5.8zM70.1 313.7h239.6V152.8H70.1z" opacity="1" data-original="#3fa9f5" class=""></path><path fill="#3fa9f5" d="M98.7 303.5c-3.2 0-5.9-2.6-5.9-5.9V168.9c0-3.2 2.6-5.9 5.9-5.9 3.2 0 5.9 2.6 5.9 5.9v128.8c0 3.2-2.6 5.8-5.9 5.8zM129.1 303.5c-3.2 0-5.9-2.6-5.9-5.9V168.9c0-3.2 2.6-5.9 5.9-5.9s5.9 2.6 5.9 5.9v128.8c0 3.2-2.6 5.8-5.9 5.8zM159.5 303.5c-3.2 0-5.9-2.6-5.9-5.9V168.9c0-3.2 2.6-5.9 5.9-5.9s5.9 2.6 5.9 5.9v128.8c0 3.2-2.6 5.8-5.9 5.8zM189.9 303.5c-3.2 0-5.9-2.6-5.9-5.9V168.9c0-3.2 2.6-5.9 5.9-5.9s5.9 2.6 5.9 5.9v128.8c0 3.2-2.6 5.8-5.9 5.8zM220.3 303.5c-3.2 0-5.9-2.6-5.9-5.9V168.9c0-3.2 2.6-5.9 5.9-5.9s5.9 2.6 5.9 5.9v128.8c0 3.2-2.6 5.8-5.9 5.8zM250.7 303.5c-3.2 0-5.9-2.6-5.9-5.9V168.9c0-3.2 2.6-5.9 5.9-5.9s5.9 2.6 5.9 5.9v128.8c0 3.2-2.6 5.8-5.9 5.8zM281.1 303.5c-3.2 0-5.9-2.6-5.9-5.9V168.9c0-3.2 2.6-5.9 5.9-5.9s5.9 2.6 5.9 5.9v128.8c0 3.2-2.6 5.8-5.9 5.8z" opacity="1" data-original="#3fa9f5" class=""></path></g></svg>